<?xml version="1.0" encoding="utf-8"?>
<!-- Generator: Adobe Illustrator 15.1.0, SVG Export Plug-In . SVG Version: 6.00 Build 0)  -->
<!DOCTYPE svg PUBLIC "-//W3C//DTD SVG 1.1//EN" "http://www.w3.org/Graphics/SVG/1.1/DTD/svg11.dtd">
<svg version="1.1" xmlns="http://www.w3.org/2000/svg" xmlns:xlink="http://www.w3.org/1999/xlink" x="0px" y="0px"
	 width="2437.795px" height="1303.938px" viewBox="0 0 2437.795 1303.938" enable-background="new 0 0 2437.795 1303.938"
	 xml:space="preserve">
<g id="styles_x5F_delete" display="none">
	
		<rect x="61.071" y="1226.143" display="inline" fill="none" stroke="#000000" stroke-width="3.000000e-04" width="41.072" height="37.5"/>
	
		<rect x="120.893" y="1226.143" display="inline" fill="none" stroke="#FF0000" stroke-width="3.000000e-04" width="41.072" height="37.5"/>
	
		<rect x="180.714" y="1226.143" display="inline" fill="none" stroke="#0000FF" stroke-width="3.000000e-04" width="41.072" height="37.5"/>
	
		<rect x="240.535" y="1226.143" display="inline" fill="none" stroke="#00FF00" stroke-width="3.000000e-04" width="41.072" height="37.5"/>
	<rect x="300.356" y="1226.143" display="inline" fill="#00FF00" width="41.072" height="37.5"/>
	<rect x="360.178" y="1226.143" display="inline" fill="#FF0000" width="41.072" height="37.5"/>
	<rect x="419.999" y="1226.143" display="inline" fill="#FF00FF" width="41.072" height="37.5"/>
	<rect x="479.82" y="1226.143" display="inline" fill="#FFFF00" width="41.072" height="37.5"/>
	<rect x="539.642" y="1226.143" display="inline" width="41.072" height="37.5"/>
	<rect x="599.463" y="1226.143" display="inline" fill="#0000FF" width="41.072" height="37.5"/>
	<rect x="660.177" y="1226.143" display="inline" fill="#00FFFF" width="41.072" height="37.5"/>
</g>
<g id="Layer_1">
	<path fill="none" stroke="#000000" stroke-width="3.000000e-04" d="M21.261,77.119v347c0,32.333,26.096,59.317,58.428,59.317
		l1171.625-45.442c20.635,0,37.334-16.698,37.334-37.334l0.002,0.08l0.066-300.471l0.004,0.08c0-20.637-17.24-37.75-37.875-37.75
		L79.441,17.94C47.107,17.94,21.261,44.786,21.261,77.119"/>
	<circle fill="none" stroke="#000000" stroke-width="3.000000e-04" cx="1241.959" cy="393.868" r="7.086"/>
	<circle fill="none" stroke="#000000" stroke-width="3.000000e-04" cx="1241.984" cy="107.325" r="7.087"/>
	<circle fill="none" stroke="#000000" stroke-width="3.000000e-04" cx="77.861" cy="71.911" r="7.087"/>
	<circle fill="none" stroke="#000000" stroke-width="3.000000e-04" cx="77.986" cy="429.286" r="7.086"/>
</g>
</svg>
