<?xml version="1.0" encoding="utf-8"?>
<!-- Generator: Adobe Illustrator 15.1.0, SVG Export Plug-In . SVG Version: 6.00 Build 0)  -->
<!DOCTYPE svg PUBLIC "-//W3C//DTD SVG 1.1//EN" "http://www.w3.org/Graphics/SVG/1.1/DTD/svg11.dtd">
<svg version="1.1" xmlns="http://www.w3.org/2000/svg" xmlns:xlink="http://www.w3.org/1999/xlink" x="0px" y="0px"
	 width="2437.795px" height="1303.938px" viewBox="0 0 2437.795 1303.938" enable-background="new 0 0 2437.795 1303.938"
	 xml:space="preserve">
<g id="styles_x5F_delete" display="none">
	
		<rect x="61.071" y="1226.143" display="inline" fill="none" stroke="#000000" stroke-width="3.000000e-04" width="41.072" height="37.5"/>
	
		<rect x="120.893" y="1226.143" display="inline" fill="none" stroke="#FF0000" stroke-width="3.000000e-04" width="41.072" height="37.5"/>
	
		<rect x="180.714" y="1226.143" display="inline" fill="none" stroke="#0000FF" stroke-width="3.000000e-04" width="41.072" height="37.5"/>
	
		<rect x="240.535" y="1226.143" display="inline" fill="none" stroke="#00FF00" stroke-width="3.000000e-04" width="41.072" height="37.5"/>
	<rect x="300.356" y="1226.143" display="inline" fill="#00FF00" width="41.072" height="37.5"/>
	<rect x="360.178" y="1226.143" display="inline" fill="#FF0000" width="41.072" height="37.5"/>
	<rect x="419.999" y="1226.143" display="inline" fill="#FF00FF" width="41.072" height="37.5"/>
	<rect x="479.82" y="1226.143" display="inline" fill="#FFFF00" width="41.072" height="37.5"/>
	<rect x="539.642" y="1226.143" display="inline" width="41.072" height="37.5"/>
	<rect x="599.463" y="1226.143" display="inline" fill="#0000FF" width="41.072" height="37.5"/>
	<rect x="660.177" y="1226.143" display="inline" fill="#00FFFF" width="41.072" height="37.5"/>
</g>
<g id="Layer_1">
	<path fill="none" stroke="#000000" stroke-width="3.000000e-04" d="M252.686,176.25c28.335,0,51.314-22.971,51.314-51.307
		c0-28.35-22.979-51.307-51.314-51.307c-28.336,0-51.301,22.957-51.301,51.307C201.385,153.28,224.35,176.25,252.686,176.25z"/>
	<path fill="none" stroke="#000000" stroke-width="3.000000e-04" d="M252.677,232.944c59.646,0,108.015-48.354,108.015-108
		c0-59.674-48.369-108-108.015-108s-107.985,48.326-107.985,108C144.692,184.59,193.032,232.944,252.677,232.944z"/>
	<path fill="none" stroke="#000000" stroke-width="3.000000e-04" d="M331.412,131.746c3.758,0,6.803-3.047,6.803-6.804
		s-3.045-6.802-6.803-6.802c-0.004,0-0.008,0-0.012,0c-3.752,0.007-6.791,3.05-6.791,6.802
		C324.609,128.701,327.654,131.746,331.412,131.746z"/>
	<path fill="none" stroke="#000000" stroke-width="3.000000e-04" d="M213.349,64.791c3.757,0,6.803-3.047,6.803-6.804
		s-3.046-6.802-6.803-6.802c-0.003,0-0.008,0-0.012,0c-3.752,0.007-6.792,3.05-6.792,6.802
		C206.546,61.746,209.592,64.791,213.349,64.791z"/>
	<path fill="none" stroke="#000000" stroke-width="3.000000e-04" d="M214.036,198.701c3.757,0,6.803-3.047,6.803-6.804
		s-3.046-6.802-6.803-6.802c-0.003,0-0.008,0-0.012,0c-3.752,0.007-6.792,3.05-6.792,6.802
		C207.232,195.656,210.278,198.701,214.036,198.701z"/>
	<path fill="none" stroke="#000000" stroke-width="3.000000e-04" d="M720.493,596.732c28.335,0,51.314-22.971,51.314-51.307
		c0-28.35-22.979-51.307-51.314-51.307s-51.3,22.957-51.3,51.307C669.192,573.762,692.157,596.732,720.493,596.732z"/>
	<path fill="none" stroke="#000000" stroke-width="3.000000e-04" d="M720.481,681.77c75.301,0,136.364-61.043,136.364-136.344
		c0-75.336-61.063-136.346-136.364-136.346c-75.3,0-136.328,61.01-136.328,136.346C584.153,620.727,645.181,681.77,720.481,681.77z"
		/>
	<path fill="none" stroke="#000000" stroke-width="3.000000e-04" d="M706.918,172.192c28.335,0,51.314-22.971,51.314-51.307
		c0-28.35-22.979-51.307-51.314-51.307c-28.336,0-51.301,22.957-51.301,51.307C655.617,149.221,678.582,172.192,706.918,172.192z"/>
	<path fill="none" stroke="#000000" stroke-width="3.000000e-04" d="M706.91,228.885c59.646,0,108.015-48.354,108.015-108
		c0-59.674-48.369-108-108.015-108s-107.985,48.326-107.985,108C598.924,180.532,647.264,228.885,706.91,228.885z"/>
	<path fill="none" stroke="#000000" stroke-width="3.000000e-04" d="M785.644,127.687c3.758,0,6.803-3.047,6.803-6.804
		s-3.045-6.802-6.803-6.802c-0.004,0-0.008,0-0.012,0c-3.752,0.007-6.791,3.05-6.791,6.802
		C778.841,124.642,781.886,127.687,785.644,127.687z"/>
	<path fill="none" stroke="#000000" stroke-width="3.000000e-04" d="M667.582,60.732c3.757,0,6.803-3.047,6.803-6.804
		s-3.046-6.802-6.803-6.802c-0.003,0-0.008,0-0.012,0c-3.752,0.007-6.792,3.05-6.792,6.802
		C660.778,57.687,663.824,60.732,667.582,60.732z"/>
	<path fill="none" stroke="#000000" stroke-width="3.000000e-04" d="M668.268,194.642c3.757,0,6.803-3.047,6.803-6.804
		s-3.046-6.802-6.803-6.802c-0.003,0-0.008,0-0.012,0c-3.752,0.007-6.792,3.05-6.792,6.802
		C661.465,191.597,664.511,194.642,668.268,194.642z"/>
	<path fill="none" stroke="#000000" stroke-width="3.000000e-04" d="M477.158,166.965c28.335,0,51.314-22.971,51.314-51.307
		c0-28.35-22.979-51.307-51.314-51.307c-28.336,0-51.301,22.957-51.301,51.307C425.857,143.994,448.822,166.965,477.158,166.965z"/>
	<path fill="none" stroke="#000000" stroke-width="3.000000e-04" d="M477.149,223.658c59.646,0,108.015-48.354,108.015-108
		c0-59.674-48.369-108-108.015-108s-107.985,48.326-107.985,108C369.164,175.305,417.504,223.658,477.149,223.658z"/>
	<path fill="none" stroke="#000000" stroke-width="3.000000e-04" d="M555.884,122.46c3.758,0,6.803-3.047,6.803-6.804
		s-3.045-6.802-6.803-6.802c-0.004,0-0.008,0-0.012,0c-3.752,0.007-6.791,3.05-6.791,6.802
		C549.081,119.415,552.126,122.46,555.884,122.46z"/>
	<path fill="none" stroke="#000000" stroke-width="3.000000e-04" d="M437.821,55.505c3.757,0,6.803-3.047,6.803-6.804
		s-3.046-6.802-6.803-6.802c-0.003,0-0.008,0-0.012,0c-3.752,0.007-6.792,3.05-6.792,6.802
		C431.018,52.46,434.064,55.505,437.821,55.505z"/>
	<path fill="none" stroke="#000000" stroke-width="3.000000e-04" d="M438.508,189.415c3.757,0,6.803-3.047,6.803-6.804
		s-3.046-6.802-6.803-6.802c-0.003,0-0.008,0-0.012,0c-3.752,0.007-6.792,3.05-6.792,6.802
		C431.705,186.37,434.75,189.415,438.508,189.415z"/>
	<path fill="none" stroke="#000000" stroke-width="3.000000e-04" d="M441.165,604.781c28.335,0,51.313-22.971,51.313-51.307
		c0-28.35-22.979-51.307-51.313-51.307c-28.336,0-51.301,22.957-51.301,51.307C389.864,581.81,412.829,604.781,441.165,604.781z"/>
	<path fill="none" stroke="#000000" stroke-width="3.000000e-04" d="M519.891,560.276c3.758,0,6.803-3.047,6.803-6.804
		s-3.045-6.802-6.803-6.802c-0.004,0-0.008,0-0.012,0c-3.752,0.007-6.791,3.05-6.791,6.802
		C513.088,557.231,516.133,560.276,519.891,560.276z"/>
	<path fill="none" stroke="#000000" stroke-width="3.000000e-04" d="M401.828,493.321c3.758,0,6.804-3.047,6.804-6.804
		s-3.046-6.802-6.804-6.802c-0.003,0-0.008,0-0.012,0c-3.752,0.007-6.791,3.05-6.791,6.802
		C395.025,490.276,398.071,493.321,401.828,493.321z"/>
	<path fill="none" stroke="#000000" stroke-width="3.000000e-04" d="M402.515,627.231c3.758,0,6.804-3.047,6.804-6.804
		s-3.046-6.802-6.804-6.802c-0.003,0-0.008,0-0.012,0c-3.752,0.007-6.791,3.05-6.791,6.802
		C395.712,624.186,398.758,627.231,402.515,627.231z"/>
	<path fill="none" stroke="#000000" stroke-width="3.000000e-04" d="M441.153,689.82c75.301,0,136.364-61.045,136.364-136.346
		c0-75.336-61.063-136.347-136.364-136.347s-136.328,61.011-136.328,136.347C304.825,628.775,365.853,689.82,441.153,689.82z"/>
	<path fill="none" stroke="#000000" stroke-width="3.000000e-04" d="M145.832,605.497c28.335,0,51.313-22.971,51.313-51.307
		c0-28.35-22.979-51.307-51.313-51.307c-28.336,0-51.301,22.957-51.301,51.307C94.531,582.526,117.496,605.497,145.832,605.497z"/>
	<path fill="none" stroke="#000000" stroke-width="3.000000e-04" d="M224.558,560.992c3.758,0,6.803-3.047,6.803-6.804
		s-3.045-6.802-6.803-6.802c-0.004,0-0.008,0-0.012,0c-3.752,0.007-6.791,3.05-6.791,6.802
		C217.755,557.947,220.8,560.992,224.558,560.992z"/>
	<path fill="none" stroke="#000000" stroke-width="3.000000e-04" d="M106.495,494.037c3.758,0,6.804-3.047,6.804-6.804
		s-3.046-6.802-6.804-6.802c-0.003,0-0.008,0-0.012,0c-3.752,0.007-6.791,3.05-6.791,6.802
		C99.692,490.992,102.738,494.037,106.495,494.037z"/>
	<path fill="none" stroke="#000000" stroke-width="3.000000e-04" d="M107.182,627.947c3.758,0,6.804-3.047,6.804-6.804
		s-3.046-6.802-6.804-6.802c-0.003,0-0.008,0-0.012,0c-3.752,0.007-6.791,3.05-6.791,6.802
		C100.379,624.902,103.425,627.947,107.182,627.947z"/>
	<path fill="none" stroke="#000000" stroke-width="3.000000e-04" d="M145.82,690.535c75.301,0,136.364-61.044,136.364-136.345
		c0-75.336-61.063-136.347-136.364-136.347S9.492,478.854,9.492,554.19C9.492,629.491,70.52,690.535,145.82,690.535z"/>
	<path fill="none" stroke="#000000" stroke-width="3.000000e-04" d="M1047.486,241.037c59.646,0,108.015-48.354,108.015-108
		c0-59.674-48.369-108-108.015-108s-107.985,48.326-107.985,108C939.501,192.684,987.841,241.037,1047.486,241.037z"/>
	<path fill="none" stroke="#000000" stroke-width="3.000000e-04" d="M1033.684,591.185c28.335,0,51.314-22.971,51.314-51.307
		c0-28.35-22.979-51.307-51.314-51.307s-51.3,22.957-51.3,51.307C982.384,568.214,1005.349,591.185,1033.684,591.185z"/>
	<path fill="none" stroke="#000000" stroke-width="3.000000e-04" d="M1033.673,676.223c75.301,0,136.364-61.043,136.364-136.344
		c0-75.336-61.063-136.346-136.364-136.346c-75.3,0-136.328,61.01-136.328,136.346
		C897.345,615.179,958.373,676.223,1033.673,676.223z"/>
	<path fill="none" stroke="#000000" stroke-width="3.000000e-04" d="M1211.344,377.802c28.335,0,51.313-22.971,51.313-51.307
		c0-28.35-22.979-51.307-51.313-51.307c-28.337,0-51.302,22.957-51.302,51.307C1160.042,354.832,1183.007,377.802,1211.344,377.802z
		"/>
	<path fill="none" stroke="#000000" stroke-width="3.000000e-04" d="M1211.333,462.843c75.3,0,136.363-61.047,136.363-136.348
		c0-75.336-61.063-136.346-136.363-136.346c-75.302,0-136.33,61.01-136.33,136.346
		C1075.003,401.796,1136.031,462.843,1211.333,462.843z"/>
	<path fill="none" stroke="#000000" stroke-width="3.000000e-04" d="M870.461,362.224c28.335,0,51.314-22.971,51.314-51.307
		c0-28.35-22.979-51.307-51.314-51.307s-51.3,22.957-51.3,51.307C819.161,339.253,842.126,362.224,870.461,362.224z"/>
	<path fill="none" stroke="#000000" stroke-width="3.000000e-04" d="M870.45,447.265c75.301,0,136.364-61.047,136.364-136.348
		c0-75.336-61.063-136.346-136.364-136.346c-75.3,0-136.328,61.01-136.328,136.346C734.122,386.218,795.15,447.265,870.45,447.265z"
		/>
	<path fill="none" stroke="#000000" stroke-width="3.000000e-04" d="M124.99,413.753c59.646,0,108.015-48.354,108.015-108
		c0-59.674-48.369-108-108.015-108s-107.985,48.326-107.985,108C17.004,365.4,65.344,413.753,124.99,413.753z"/>
	<path fill="none" stroke="#000000" stroke-width="3.000000e-04" d="M379.413,420.819c59.646,0,108.015-48.354,108.015-108
		c0-59.674-48.369-108-108.015-108s-107.985,48.326-107.985,108C271.428,372.465,319.768,420.819,379.413,420.819z"/>
	<path fill="none" stroke="#000000" stroke-width="3.000000e-04" d="M604.272,430.796c59.646,0,108.015-48.354,108.015-108
		c0-59.674-48.369-108-108.015-108s-107.985,48.326-107.985,108C496.287,382.442,544.626,430.796,604.272,430.796z"/>
</g>
</svg>
