<?xml version="1.0" encoding="utf-8"?>
<!-- Generator: Adobe Illustrator 15.1.0, SVG Export Plug-In . SVG Version: 6.00 Build 0)  -->
<!DOCTYPE svg PUBLIC "-//W3C//DTD SVG 1.1//EN" "http://www.w3.org/Graphics/SVG/1.1/DTD/svg11.dtd">
<svg version="1.1" id="Layer_1" xmlns="http://www.w3.org/2000/svg" xmlns:xlink="http://www.w3.org/1999/xlink" x="0px" y="0px"
	 width="2437.8px" height="1303.939px" viewBox="0 0 2437.8 1303.939" enable-background="new 0 0 2437.8 1303.939"
	 xml:space="preserve">
<g>
	<defs>
		<rect id="SVGID_1_" y="0.002" width="2437.795" height="1303.937"/>
	</defs>
	<clipPath id="SVGID_2_">
		<use xlink:href="#SVGID_1_"  overflow="visible"/>
	</clipPath>
	<g clip-path="url(#SVGID_2_)">
		<circle fill="none" stroke="#000000" stroke-width="0" cx="83.487" cy="32.812" r="7.086"/>
		<path fill="none" stroke="#000000" stroke-width="0" d="M83.485,54.921c12.211,0,22.113-9.899,22.113-22.11
			c0-12.217-9.902-22.111-22.113-22.111s-22.107,9.894-22.107,22.111C61.378,45.022,71.274,54.921,83.485,54.921z"/>
	</g>
	<g clip-path="url(#SVGID_2_)">
		<circle fill="none" stroke="#000000" stroke-width="0" cx="35.487" cy="32.111" r="7.086"/>
		<path fill="none" stroke="#000000" stroke-width="0" d="M35.485,54.221c12.211,0,22.113-9.899,22.113-22.11
			C57.599,19.894,47.696,10,35.485,10s-22.107,9.894-22.107,22.111C13.378,44.322,23.274,54.221,35.485,54.221z"/>
	</g>
	<g clip-path="url(#SVGID_2_)">
		<circle fill="none" stroke="#000000" stroke-width="0" cx="181.487" cy="32.812" r="7.086"/>
		<path fill="none" stroke="#000000" stroke-width="0" d="M181.485,54.921c12.211,0,22.113-9.899,22.113-22.11
			c0-12.217-9.902-22.111-22.113-22.111s-22.107,9.894-22.107,22.111C159.378,45.022,169.274,54.921,181.485,54.921z"/>
	</g>
	<g clip-path="url(#SVGID_2_)">
		<circle fill="none" stroke="#000000" stroke-width="0" cx="133.487" cy="32.111" r="7.086"/>
		<path fill="none" stroke="#000000" stroke-width="0" d="M133.485,54.221c12.211,0,22.113-9.899,22.113-22.11
			c0-12.217-9.902-22.111-22.113-22.111s-22.107,9.894-22.107,22.111C111.378,44.322,121.274,54.221,133.485,54.221z"/>
	</g>
	<g clip-path="url(#SVGID_2_)">
		<defs>
			<rect id="SVGID_3_" x="-894" y="-543.998" width="2437.795" height="1303.937"/>
		</defs>
		<clipPath id="SVGID_4_">
			<use xlink:href="#SVGID_3_"  overflow="visible"/>
		</clipPath>
		<g clip-path="url(#SVGID_4_)">
			<circle fill="none" stroke="#000000" stroke-width="0" cx="-820.513" cy="-521.188" r="7.086"/>
			<path fill="none" stroke="#000000" stroke-width="0" d="M-820.515-499.079c12.211,0,22.113-9.899,22.113-22.11
				c0-12.217-9.902-22.111-22.113-22.111s-22.107,9.894-22.107,22.111C-842.622-508.978-832.726-499.079-820.515-499.079z"/>
		</g>
		<g clip-path="url(#SVGID_4_)">
			<circle fill="none" stroke="#000000" stroke-width="0" cx="-868.513" cy="-521.889" r="7.086"/>
			<path fill="none" stroke="#000000" stroke-width="0" d="M-868.515-499.779c12.211,0,22.113-9.899,22.113-22.11
				c0-12.217-9.902-22.111-22.113-22.111s-22.107,9.894-22.107,22.111C-890.622-509.678-880.726-499.779-868.515-499.779z"/>
		</g>
		<g clip-path="url(#SVGID_4_)">
			<circle fill="none" stroke="#000000" stroke-width="0" cx="-722.513" cy="-521.188" r="7.086"/>
			<path fill="none" stroke="#000000" stroke-width="0" d="M-722.515-499.079c12.211,0,22.113-9.899,22.113-22.11
				c0-12.217-9.902-22.111-22.113-22.111s-22.107,9.894-22.107,22.111C-744.622-508.978-734.726-499.079-722.515-499.079z"/>
		</g>
		<g clip-path="url(#SVGID_4_)">
			<circle fill="none" stroke="#000000" stroke-width="0" cx="-770.513" cy="-521.889" r="7.086"/>
			<path fill="none" stroke="#000000" stroke-width="0" d="M-770.515-499.779c12.211,0,22.113-9.899,22.113-22.11
				c0-12.217-9.902-22.111-22.113-22.111s-22.107,9.894-22.107,22.111C-792.622-509.678-782.726-499.779-770.515-499.779z"/>
		</g>
	</g>
	<g clip-path="url(#SVGID_2_)">
		<circle fill="none" stroke="#000000" stroke-width="0" cx="276.487" cy="32.812" r="7.086"/>
		<path fill="none" stroke="#000000" stroke-width="0" d="M276.485,54.921c12.211,0,22.113-9.899,22.113-22.11
			c0-12.217-9.902-22.111-22.113-22.111s-22.107,9.894-22.107,22.111C254.378,45.022,264.274,54.921,276.485,54.921z"/>
	</g>
	<g clip-path="url(#SVGID_2_)">
		<circle fill="none" stroke="#000000" stroke-width="0" cx="228.487" cy="32.111" r="7.086"/>
		<path fill="none" stroke="#000000" stroke-width="0" d="M228.485,54.221c12.211,0,22.113-9.899,22.113-22.11
			c0-12.217-9.902-22.111-22.113-22.111s-22.107,9.894-22.107,22.111C206.378,44.322,216.274,54.221,228.485,54.221z"/>
	</g>
	<g clip-path="url(#SVGID_2_)">
		<circle fill="none" stroke="#000000" stroke-width="0" cx="374.487" cy="32.812" r="7.086"/>
		<path fill="none" stroke="#000000" stroke-width="0" d="M374.485,54.921c12.211,0,22.113-9.899,22.113-22.11
			c0-12.217-9.902-22.111-22.113-22.111s-22.107,9.894-22.107,22.111C352.378,45.022,362.274,54.921,374.485,54.921z"/>
	</g>
	<g clip-path="url(#SVGID_2_)">
		<circle fill="none" stroke="#000000" stroke-width="0" cx="326.487" cy="32.111" r="7.086"/>
		<path fill="none" stroke="#000000" stroke-width="0" d="M326.485,54.221c12.211,0,22.113-9.899,22.113-22.11
			c0-12.217-9.902-22.111-22.113-22.111s-22.107,9.894-22.107,22.111C304.378,44.322,314.274,54.221,326.485,54.221z"/>
	</g>
	<g clip-path="url(#SVGID_2_)">
		<circle fill="none" stroke="#000000" stroke-width="0" cx="106.487" cy="76.812" r="7.086"/>
		<path fill="none" stroke="#000000" stroke-width="0" d="M106.485,98.921c12.211,0,22.113-9.899,22.113-22.11
			c0-12.217-9.902-22.111-22.113-22.111s-22.107,9.894-22.107,22.111C84.378,89.022,94.274,98.921,106.485,98.921z"/>
	</g>
	<g clip-path="url(#SVGID_2_)">
		<circle fill="none" stroke="#000000" stroke-width="0" cx="58.487" cy="76.111" r="7.086"/>
		<path fill="none" stroke="#000000" stroke-width="0" d="M58.485,98.221c12.211,0,22.113-9.899,22.113-22.11
			C80.599,63.894,70.696,54,58.485,54s-22.107,9.894-22.107,22.111C36.378,88.322,46.274,98.221,58.485,98.221z"/>
	</g>
	<g clip-path="url(#SVGID_2_)">
		<circle fill="none" stroke="#000000" stroke-width="0" cx="204.487" cy="76.812" r="7.086"/>
		<path fill="none" stroke="#000000" stroke-width="0" d="M204.485,98.921c12.211,0,22.113-9.899,22.113-22.11
			c0-12.217-9.902-22.111-22.113-22.111s-22.107,9.894-22.107,22.111C182.378,89.022,192.274,98.921,204.485,98.921z"/>
	</g>
	<g clip-path="url(#SVGID_2_)">
		<circle fill="none" stroke="#000000" stroke-width="0" cx="156.487" cy="76.111" r="7.086"/>
		<path fill="none" stroke="#000000" stroke-width="0" d="M156.485,98.221c12.211,0,22.113-9.899,22.113-22.11
			c0-12.217-9.902-22.111-22.113-22.111s-22.107,9.894-22.107,22.111C134.378,88.322,144.274,98.221,156.485,98.221z"/>
	</g>
	<g clip-path="url(#SVGID_2_)">
		<circle fill="none" stroke="#000000" stroke-width="0" cx="299.487" cy="76.812" r="7.086"/>
		<path fill="none" stroke="#000000" stroke-width="0" d="M299.485,98.921c12.211,0,22.113-9.899,22.113-22.11
			c0-12.217-9.902-22.111-22.113-22.111s-22.107,9.894-22.107,22.111C277.378,89.022,287.274,98.921,299.485,98.921z"/>
	</g>
	<g clip-path="url(#SVGID_2_)">
		<circle fill="none" stroke="#000000" stroke-width="0" cx="251.487" cy="76.111" r="7.086"/>
		<path fill="none" stroke="#000000" stroke-width="0" d="M251.485,98.221c12.211,0,22.113-9.899,22.113-22.11
			c0-12.217-9.902-22.111-22.113-22.111s-22.107,9.894-22.107,22.111C229.378,88.322,239.274,98.221,251.485,98.221z"/>
	</g>
	<g clip-path="url(#SVGID_2_)">
		<circle fill="none" stroke="#000000" stroke-width="0" cx="397.487" cy="76.812" r="7.086"/>
		<path fill="none" stroke="#000000" stroke-width="0" d="M397.485,98.921c12.211,0,22.113-9.899,22.113-22.11
			c0-12.217-9.902-22.111-22.113-22.111s-22.107,9.894-22.107,22.111C375.378,89.022,385.274,98.921,397.485,98.921z"/>
	</g>
	<g clip-path="url(#SVGID_2_)">
		<circle fill="none" stroke="#000000" stroke-width="0" cx="349.487" cy="76.111" r="7.086"/>
		<path fill="none" stroke="#000000" stroke-width="0" d="M349.485,98.221c12.211,0,22.113-9.899,22.113-22.11
			c0-12.217-9.902-22.111-22.113-22.111s-22.107,9.894-22.107,22.111C327.378,88.322,337.274,98.221,349.485,98.221z"/>
	</g>
	<g clip-path="url(#SVGID_2_)">
		<circle fill="none" stroke="#000000" stroke-width="0" cx="80.487" cy="120.812" r="7.086"/>
		<path fill="none" stroke="#000000" stroke-width="0" d="M80.485,142.921c12.211,0,22.113-9.899,22.113-22.11
			c0-12.217-9.902-22.111-22.113-22.111s-22.107,9.894-22.107,22.111C58.378,133.022,68.274,142.921,80.485,142.921z"/>
	</g>
	<g clip-path="url(#SVGID_2_)">
		<circle fill="none" stroke="#000000" stroke-width="0" cx="32.487" cy="120.111" r="7.086"/>
		<path fill="none" stroke="#000000" stroke-width="0" d="M32.485,142.221c12.211,0,22.113-9.899,22.113-22.11
			C54.599,107.894,44.696,98,32.485,98s-22.107,9.894-22.107,22.111C10.378,132.322,20.274,142.221,32.485,142.221z"/>
	</g>
	<g clip-path="url(#SVGID_2_)">
		<circle fill="none" stroke="#000000" stroke-width="0" cx="178.487" cy="120.812" r="7.086"/>
		<path fill="none" stroke="#000000" stroke-width="0" d="M178.485,142.921c12.211,0,22.113-9.899,22.113-22.11
			c0-12.217-9.902-22.111-22.113-22.111s-22.107,9.894-22.107,22.111C156.378,133.022,166.274,142.921,178.485,142.921z"/>
	</g>
	<g clip-path="url(#SVGID_2_)">
		<circle fill="none" stroke="#000000" stroke-width="0" cx="130.487" cy="120.111" r="7.086"/>
		<path fill="none" stroke="#000000" stroke-width="0" d="M130.485,142.221c12.211,0,22.113-9.899,22.113-22.11
			c0-12.217-9.902-22.111-22.113-22.111s-22.107,9.894-22.107,22.111C108.378,132.322,118.274,142.221,130.485,142.221z"/>
	</g>
	<g clip-path="url(#SVGID_2_)">
		<circle fill="none" stroke="#000000" stroke-width="0" cx="273.487" cy="120.812" r="7.086"/>
		<path fill="none" stroke="#000000" stroke-width="0" d="M273.485,142.921c12.211,0,22.113-9.899,22.113-22.11
			c0-12.217-9.902-22.111-22.113-22.111s-22.107,9.894-22.107,22.111C251.378,133.022,261.274,142.921,273.485,142.921z"/>
	</g>
	<g clip-path="url(#SVGID_2_)">
		<circle fill="none" stroke="#000000" stroke-width="0" cx="225.487" cy="120.111" r="7.086"/>
		<path fill="none" stroke="#000000" stroke-width="0" d="M225.485,142.221c12.211,0,22.113-9.899,22.113-22.11
			c0-12.217-9.902-22.111-22.113-22.111s-22.107,9.894-22.107,22.111C203.378,132.322,213.274,142.221,225.485,142.221z"/>
	</g>
	<g clip-path="url(#SVGID_2_)">
		<circle fill="none" stroke="#000000" stroke-width="0" cx="371.487" cy="120.812" r="7.086"/>
		<path fill="none" stroke="#000000" stroke-width="0" d="M371.485,142.921c12.211,0,22.113-9.899,22.113-22.11
			c0-12.217-9.902-22.111-22.113-22.111s-22.107,9.894-22.107,22.111C349.378,133.022,359.274,142.921,371.485,142.921z"/>
	</g>
	<g clip-path="url(#SVGID_2_)">
		<circle fill="none" stroke="#000000" stroke-width="0" cx="323.487" cy="120.111" r="7.086"/>
		<path fill="none" stroke="#000000" stroke-width="0" d="M323.485,142.221c12.211,0,22.113-9.899,22.113-22.11
			c0-12.217-9.902-22.111-22.113-22.111s-22.107,9.894-22.107,22.111C301.378,132.322,311.274,142.221,323.485,142.221z"/>
	</g>
	<g clip-path="url(#SVGID_2_)">
		<circle fill="none" stroke="#000000" stroke-width="0" cx="106.487" cy="164.812" r="7.086"/>
		<path fill="none" stroke="#000000" stroke-width="0" d="M106.485,186.921c12.211,0,22.113-9.899,22.113-22.11
			c0-12.217-9.902-22.111-22.113-22.111s-22.107,9.894-22.107,22.111C84.378,177.022,94.274,186.921,106.485,186.921z"/>
	</g>
	<g clip-path="url(#SVGID_2_)">
		<circle fill="none" stroke="#000000" stroke-width="0" cx="58.487" cy="164.111" r="7.086"/>
		<path fill="none" stroke="#000000" stroke-width="0" d="M58.485,186.221c12.211,0,22.113-9.899,22.113-22.11
			c0-12.217-9.902-22.111-22.113-22.111s-22.107,9.894-22.107,22.111C36.378,176.322,46.274,186.221,58.485,186.221z"/>
	</g>
	<g clip-path="url(#SVGID_2_)">
		<circle fill="none" stroke="#000000" stroke-width="0" cx="204.487" cy="164.812" r="7.086"/>
		<path fill="none" stroke="#000000" stroke-width="0" d="M204.485,186.921c12.211,0,22.113-9.899,22.113-22.11
			c0-12.217-9.902-22.111-22.113-22.111s-22.107,9.894-22.107,22.111C182.378,177.022,192.274,186.921,204.485,186.921z"/>
	</g>
	<g clip-path="url(#SVGID_2_)">
		<circle fill="none" stroke="#000000" stroke-width="0" cx="156.487" cy="164.111" r="7.086"/>
		<path fill="none" stroke="#000000" stroke-width="0" d="M156.485,186.221c12.211,0,22.113-9.899,22.113-22.11
			c0-12.217-9.902-22.111-22.113-22.111s-22.107,9.894-22.107,22.111C134.378,176.322,144.274,186.221,156.485,186.221z"/>
	</g>
	<g clip-path="url(#SVGID_2_)">
		<circle fill="none" stroke="#000000" stroke-width="0" cx="299.487" cy="164.812" r="7.086"/>
		<path fill="none" stroke="#000000" stroke-width="0" d="M299.485,186.921c12.211,0,22.113-9.899,22.113-22.11
			c0-12.217-9.902-22.111-22.113-22.111s-22.107,9.894-22.107,22.111C277.378,177.022,287.274,186.921,299.485,186.921z"/>
	</g>
	<g clip-path="url(#SVGID_2_)">
		<circle fill="none" stroke="#000000" stroke-width="0" cx="251.487" cy="164.111" r="7.086"/>
		<path fill="none" stroke="#000000" stroke-width="0" d="M251.485,186.221c12.211,0,22.113-9.899,22.113-22.11
			c0-12.217-9.902-22.111-22.113-22.111s-22.107,9.894-22.107,22.111C229.378,176.322,239.274,186.221,251.485,186.221z"/>
	</g>
	<g clip-path="url(#SVGID_2_)">
		<circle fill="none" stroke="#000000" stroke-width="0" cx="397.487" cy="164.812" r="7.086"/>
		<path fill="none" stroke="#000000" stroke-width="0" d="M397.485,186.921c12.211,0,22.113-9.899,22.113-22.11
			c0-12.217-9.902-22.111-22.113-22.111s-22.107,9.894-22.107,22.111C375.378,177.022,385.274,186.921,397.485,186.921z"/>
	</g>
	<g clip-path="url(#SVGID_2_)">
		<circle fill="none" stroke="#000000" stroke-width="0" cx="349.487" cy="164.111" r="7.086"/>
		<path fill="none" stroke="#000000" stroke-width="0" d="M349.485,186.221c12.211,0,22.113-9.899,22.113-22.11
			c0-12.217-9.902-22.111-22.113-22.111s-22.107,9.894-22.107,22.111C327.378,176.322,337.274,186.221,349.485,186.221z"/>
	</g>
	<g clip-path="url(#SVGID_2_)">
		<circle fill="none" stroke="#000000" stroke-width="0" cx="80.487" cy="207.812" r="7.086"/>
		<path fill="none" stroke="#000000" stroke-width="0" d="M80.485,229.921c12.211,0,22.113-9.899,22.113-22.11
			c0-12.217-9.902-22.111-22.113-22.111s-22.107,9.894-22.107,22.111C58.378,220.022,68.274,229.921,80.485,229.921z"/>
	</g>
	<g clip-path="url(#SVGID_2_)">
		<circle fill="none" stroke="#000000" stroke-width="0" cx="32.487" cy="207.111" r="7.086"/>
		<path fill="none" stroke="#000000" stroke-width="0" d="M32.485,229.221c12.211,0,22.113-9.899,22.113-22.11
			c0-12.217-9.902-22.111-22.113-22.111s-22.107,9.894-22.107,22.111C10.378,219.322,20.274,229.221,32.485,229.221z"/>
	</g>
	<g clip-path="url(#SVGID_2_)">
		<circle fill="none" stroke="#000000" stroke-width="0" cx="178.487" cy="207.812" r="7.086"/>
		<path fill="none" stroke="#000000" stroke-width="0" d="M178.485,229.921c12.211,0,22.113-9.899,22.113-22.11
			c0-12.217-9.902-22.111-22.113-22.111s-22.107,9.894-22.107,22.111C156.378,220.022,166.274,229.921,178.485,229.921z"/>
	</g>
	<g clip-path="url(#SVGID_2_)">
		<circle fill="none" stroke="#000000" stroke-width="0" cx="130.487" cy="207.111" r="7.086"/>
		<path fill="none" stroke="#000000" stroke-width="0" d="M130.485,229.221c12.211,0,22.113-9.899,22.113-22.11
			c0-12.217-9.902-22.111-22.113-22.111s-22.107,9.894-22.107,22.111C108.378,219.322,118.274,229.221,130.485,229.221z"/>
	</g>
	<g clip-path="url(#SVGID_2_)">
		<circle fill="none" stroke="#000000" stroke-width="0" cx="273.487" cy="207.812" r="7.086"/>
		<path fill="none" stroke="#000000" stroke-width="0" d="M273.485,229.921c12.211,0,22.113-9.899,22.113-22.11
			c0-12.217-9.902-22.111-22.113-22.111s-22.107,9.894-22.107,22.111C251.378,220.022,261.274,229.921,273.485,229.921z"/>
	</g>
	<g clip-path="url(#SVGID_2_)">
		<circle fill="none" stroke="#000000" stroke-width="0" cx="225.487" cy="207.111" r="7.086"/>
		<path fill="none" stroke="#000000" stroke-width="0" d="M225.485,229.221c12.211,0,22.113-9.899,22.113-22.11
			c0-12.217-9.902-22.111-22.113-22.111s-22.107,9.894-22.107,22.111C203.378,219.322,213.274,229.221,225.485,229.221z"/>
	</g>
	<g clip-path="url(#SVGID_2_)">
		<circle fill="none" stroke="#000000" stroke-width="0" cx="371.487" cy="207.812" r="7.086"/>
		<path fill="none" stroke="#000000" stroke-width="0" d="M371.485,229.921c12.211,0,22.113-9.899,22.113-22.11
			c0-12.217-9.902-22.111-22.113-22.111s-22.107,9.894-22.107,22.111C349.378,220.022,359.274,229.921,371.485,229.921z"/>
	</g>
	<g clip-path="url(#SVGID_2_)">
		<circle fill="none" stroke="#000000" stroke-width="0" cx="323.487" cy="207.111" r="7.086"/>
		<path fill="none" stroke="#000000" stroke-width="0" d="M323.485,229.221c12.211,0,22.113-9.899,22.113-22.11
			c0-12.217-9.902-22.111-22.113-22.111s-22.107,9.894-22.107,22.111C301.378,219.322,311.274,229.221,323.485,229.221z"/>
	</g>
	<g clip-path="url(#SVGID_2_)">
		<circle fill="none" stroke="#000000" stroke-width="0" cx="104.487" cy="249.812" r="7.086"/>
		<path fill="none" stroke="#000000" stroke-width="0" d="M104.485,271.921c12.211,0,22.113-9.899,22.113-22.11
			c0-12.217-9.902-22.111-22.113-22.111s-22.107,9.894-22.107,22.111C82.378,262.022,92.274,271.921,104.485,271.921z"/>
	</g>
	<g clip-path="url(#SVGID_2_)">
		<circle fill="none" stroke="#000000" stroke-width="0" cx="56.487" cy="249.111" r="7.086"/>
		<path fill="none" stroke="#000000" stroke-width="0" d="M56.485,271.221c12.211,0,22.113-9.899,22.113-22.11
			c0-12.217-9.902-22.111-22.113-22.111s-22.107,9.894-22.107,22.111C34.378,261.322,44.274,271.221,56.485,271.221z"/>
	</g>
	<g clip-path="url(#SVGID_2_)">
		<circle fill="none" stroke="#000000" stroke-width="0" cx="202.487" cy="249.812" r="7.086"/>
		<path fill="none" stroke="#000000" stroke-width="0" d="M202.485,271.921c12.211,0,22.113-9.899,22.113-22.11
			c0-12.217-9.902-22.111-22.113-22.111s-22.107,9.894-22.107,22.111C180.378,262.022,190.274,271.921,202.485,271.921z"/>
	</g>
	<g clip-path="url(#SVGID_2_)">
		<circle fill="none" stroke="#000000" stroke-width="0" cx="154.487" cy="249.111" r="7.086"/>
		<path fill="none" stroke="#000000" stroke-width="0" d="M154.485,271.221c12.211,0,22.113-9.899,22.113-22.11
			c0-12.217-9.902-22.111-22.113-22.111s-22.107,9.894-22.107,22.111C132.378,261.322,142.274,271.221,154.485,271.221z"/>
	</g>
	<g clip-path="url(#SVGID_2_)">
		<circle fill="none" stroke="#000000" stroke-width="0" cx="297.487" cy="249.812" r="7.086"/>
		<path fill="none" stroke="#000000" stroke-width="0" d="M297.485,271.921c12.211,0,22.113-9.899,22.113-22.11
			c0-12.217-9.902-22.111-22.113-22.111s-22.107,9.894-22.107,22.111C275.378,262.022,285.274,271.921,297.485,271.921z"/>
	</g>
	<g clip-path="url(#SVGID_2_)">
		<circle fill="none" stroke="#000000" stroke-width="0" cx="249.487" cy="249.111" r="7.086"/>
		<path fill="none" stroke="#000000" stroke-width="0" d="M249.485,271.221c12.211,0,22.113-9.899,22.113-22.11
			c0-12.217-9.902-22.111-22.113-22.111s-22.107,9.894-22.107,22.111C227.378,261.322,237.274,271.221,249.485,271.221z"/>
	</g>
	<g clip-path="url(#SVGID_2_)">
		<circle fill="none" stroke="#000000" stroke-width="0" cx="395.487" cy="249.812" r="7.086"/>
		<path fill="none" stroke="#000000" stroke-width="0" d="M395.485,271.921c12.211,0,22.113-9.899,22.113-22.11
			c0-12.217-9.902-22.111-22.113-22.111s-22.107,9.894-22.107,22.111C373.378,262.022,383.274,271.921,395.485,271.921z"/>
	</g>
	<g clip-path="url(#SVGID_2_)">
		<circle fill="none" stroke="#000000" stroke-width="0" cx="347.487" cy="249.111" r="7.086"/>
		<path fill="none" stroke="#000000" stroke-width="0" d="M347.485,271.221c12.211,0,22.113-9.899,22.113-22.11
			c0-12.217-9.902-22.111-22.113-22.111s-22.107,9.894-22.107,22.111C325.378,261.322,335.274,271.221,347.485,271.221z"/>
	</g>
	<g clip-path="url(#SVGID_2_)">
		<circle fill="none" stroke="#000000" stroke-width="0" cx="81.487" cy="291.812" r="7.086"/>
		<path fill="none" stroke="#000000" stroke-width="0" d="M81.485,313.921c12.211,0,22.113-9.899,22.113-22.11
			c0-12.217-9.902-22.111-22.113-22.111s-22.107,9.894-22.107,22.111C59.378,304.022,69.274,313.921,81.485,313.921z"/>
	</g>
	<g clip-path="url(#SVGID_2_)">
		<circle fill="none" stroke="#000000" stroke-width="0" cx="33.487" cy="291.111" r="7.086"/>
		<path fill="none" stroke="#000000" stroke-width="0" d="M33.485,313.221c12.211,0,22.113-9.899,22.113-22.11
			c0-12.217-9.902-22.111-22.113-22.111s-22.107,9.894-22.107,22.111C11.378,303.322,21.274,313.221,33.485,313.221z"/>
	</g>
	<g clip-path="url(#SVGID_2_)">
		<circle fill="none" stroke="#000000" stroke-width="0" cx="179.487" cy="291.812" r="7.086"/>
		<path fill="none" stroke="#000000" stroke-width="0" d="M179.485,313.921c12.211,0,22.113-9.899,22.113-22.11
			c0-12.217-9.902-22.111-22.113-22.111s-22.107,9.894-22.107,22.111C157.378,304.022,167.274,313.921,179.485,313.921z"/>
	</g>
	<g clip-path="url(#SVGID_2_)">
		<circle fill="none" stroke="#000000" stroke-width="0" cx="131.487" cy="291.111" r="7.086"/>
		<path fill="none" stroke="#000000" stroke-width="0" d="M131.485,313.221c12.211,0,22.113-9.899,22.113-22.11
			c0-12.217-9.902-22.111-22.113-22.111s-22.107,9.894-22.107,22.111C109.378,303.322,119.274,313.221,131.485,313.221z"/>
	</g>
	<g clip-path="url(#SVGID_2_)">
		<circle fill="none" stroke="#000000" stroke-width="0" cx="274.487" cy="291.812" r="7.086"/>
		<path fill="none" stroke="#000000" stroke-width="0" d="M274.485,313.921c12.211,0,22.113-9.899,22.113-22.11
			c0-12.217-9.902-22.111-22.113-22.111s-22.107,9.894-22.107,22.111C252.378,304.022,262.274,313.921,274.485,313.921z"/>
	</g>
	<g clip-path="url(#SVGID_2_)">
		<circle fill="none" stroke="#000000" stroke-width="0" cx="226.487" cy="291.111" r="7.086"/>
		<path fill="none" stroke="#000000" stroke-width="0" d="M226.485,313.221c12.211,0,22.113-9.899,22.113-22.11
			c0-12.217-9.902-22.111-22.113-22.111s-22.107,9.894-22.107,22.111C204.378,303.322,214.274,313.221,226.485,313.221z"/>
	</g>
	<g clip-path="url(#SVGID_2_)">
		<circle fill="none" stroke="#000000" stroke-width="0" cx="372.487" cy="291.812" r="7.086"/>
		<path fill="none" stroke="#000000" stroke-width="0" d="M372.485,313.921c12.211,0,22.113-9.899,22.113-22.11
			c0-12.217-9.902-22.111-22.113-22.111s-22.107,9.894-22.107,22.111C350.378,304.022,360.274,313.921,372.485,313.921z"/>
	</g>
	<g clip-path="url(#SVGID_2_)">
		<circle fill="none" stroke="#000000" stroke-width="0" cx="324.487" cy="291.111" r="7.086"/>
		<path fill="none" stroke="#000000" stroke-width="0" d="M324.485,313.221c12.211,0,22.113-9.899,22.113-22.11
			c0-12.217-9.902-22.111-22.113-22.111s-22.107,9.894-22.107,22.111C302.378,303.322,312.274,313.221,324.485,313.221z"/>
	</g>
	<g clip-path="url(#SVGID_2_)">
		<circle fill="none" stroke="#000000" stroke-width="0" cx="471.487" cy="32.812" r="7.086"/>
		<path fill="none" stroke="#000000" stroke-width="0" d="M471.485,54.921c12.211,0,22.113-9.899,22.113-22.11
			c0-12.217-9.902-22.111-22.113-22.111s-22.107,9.894-22.107,22.111C449.378,45.022,459.274,54.921,471.485,54.921z"/>
	</g>
	<g clip-path="url(#SVGID_2_)">
		<circle fill="none" stroke="#000000" stroke-width="0" cx="423.487" cy="32.111" r="7.086"/>
		<path fill="none" stroke="#000000" stroke-width="0" d="M423.485,54.221c12.211,0,22.113-9.899,22.113-22.11
			c0-12.217-9.902-22.111-22.113-22.111s-22.107,9.894-22.107,22.111C401.378,44.322,411.274,54.221,423.485,54.221z"/>
	</g>
	<g clip-path="url(#SVGID_2_)">
		<circle fill="none" stroke="#000000" stroke-width="0" cx="569.487" cy="32.812" r="7.086"/>
		<path fill="none" stroke="#000000" stroke-width="0" d="M569.485,54.921c12.211,0,22.113-9.899,22.113-22.11
			c0-12.217-9.902-22.111-22.113-22.111s-22.107,9.894-22.107,22.111C547.378,45.022,557.274,54.921,569.485,54.921z"/>
	</g>
	<g clip-path="url(#SVGID_2_)">
		<circle fill="none" stroke="#000000" stroke-width="0" cx="521.487" cy="32.111" r="7.086"/>
		<path fill="none" stroke="#000000" stroke-width="0" d="M521.485,54.221c12.211,0,22.113-9.899,22.113-22.11
			c0-12.217-9.902-22.111-22.113-22.111s-22.107,9.894-22.107,22.111C499.378,44.322,509.274,54.221,521.485,54.221z"/>
	</g>
	<g clip-path="url(#SVGID_2_)">
		<circle fill="none" stroke="#000000" stroke-width="0" cx="664.487" cy="32.812" r="7.086"/>
		<path fill="none" stroke="#000000" stroke-width="0" d="M664.485,54.921c12.211,0,22.113-9.899,22.113-22.11
			c0-12.217-9.902-22.111-22.113-22.111s-22.107,9.894-22.107,22.111C642.378,45.022,652.274,54.921,664.485,54.921z"/>
	</g>
	<g clip-path="url(#SVGID_2_)">
		<circle fill="none" stroke="#000000" stroke-width="0" cx="616.487" cy="32.111" r="7.086"/>
		<path fill="none" stroke="#000000" stroke-width="0" d="M616.485,54.221c12.211,0,22.113-9.899,22.113-22.11
			c0-12.217-9.902-22.111-22.113-22.111s-22.107,9.894-22.107,22.111C594.378,44.322,604.274,54.221,616.485,54.221z"/>
	</g>
	<g clip-path="url(#SVGID_2_)">
		<circle fill="none" stroke="#000000" stroke-width="0" cx="762.487" cy="32.812" r="7.086"/>
		<path fill="none" stroke="#000000" stroke-width="0" d="M762.485,54.921c12.211,0,22.113-9.899,22.113-22.11
			c0-12.217-9.902-22.111-22.113-22.111s-22.107,9.894-22.107,22.111C740.378,45.022,750.274,54.921,762.485,54.921z"/>
	</g>
	<g clip-path="url(#SVGID_2_)">
		<circle fill="none" stroke="#000000" stroke-width="0" cx="714.487" cy="32.111" r="7.086"/>
		<path fill="none" stroke="#000000" stroke-width="0" d="M714.485,54.221c12.211,0,22.113-9.899,22.113-22.11
			c0-12.217-9.902-22.111-22.113-22.111s-22.107,9.894-22.107,22.111C692.378,44.322,702.274,54.221,714.485,54.221z"/>
	</g>
	<g clip-path="url(#SVGID_2_)">
		<circle fill="none" stroke="#000000" stroke-width="0" cx="494.487" cy="76.812" r="7.086"/>
		<path fill="none" stroke="#000000" stroke-width="0" d="M494.485,98.921c12.211,0,22.113-9.899,22.113-22.11
			c0-12.217-9.902-22.111-22.113-22.111s-22.107,9.894-22.107,22.111C472.378,89.022,482.274,98.921,494.485,98.921z"/>
	</g>
	<g clip-path="url(#SVGID_2_)">
		<circle fill="none" stroke="#000000" stroke-width="0" cx="446.487" cy="76.111" r="7.086"/>
		<path fill="none" stroke="#000000" stroke-width="0" d="M446.485,98.221c12.211,0,22.113-9.899,22.113-22.11
			c0-12.217-9.902-22.111-22.113-22.111s-22.107,9.894-22.107,22.111C424.378,88.322,434.274,98.221,446.485,98.221z"/>
	</g>
	<g clip-path="url(#SVGID_2_)">
		<circle fill="none" stroke="#000000" stroke-width="0" cx="592.487" cy="76.812" r="7.086"/>
		<path fill="none" stroke="#000000" stroke-width="0" d="M592.485,98.921c12.211,0,22.113-9.899,22.113-22.11
			c0-12.217-9.902-22.111-22.113-22.111s-22.107,9.894-22.107,22.111C570.378,89.022,580.274,98.921,592.485,98.921z"/>
	</g>
	<g clip-path="url(#SVGID_2_)">
		<circle fill="none" stroke="#000000" stroke-width="0" cx="544.487" cy="76.111" r="7.086"/>
		<path fill="none" stroke="#000000" stroke-width="0" d="M544.485,98.221c12.211,0,22.113-9.899,22.113-22.11
			c0-12.217-9.902-22.111-22.113-22.111s-22.107,9.894-22.107,22.111C522.378,88.322,532.274,98.221,544.485,98.221z"/>
	</g>
	<g clip-path="url(#SVGID_2_)">
		<circle fill="none" stroke="#000000" stroke-width="0" cx="687.487" cy="76.812" r="7.086"/>
		<path fill="none" stroke="#000000" stroke-width="0" d="M687.485,98.921c12.211,0,22.113-9.899,22.113-22.11
			c0-12.217-9.902-22.111-22.113-22.111s-22.107,9.894-22.107,22.111C665.378,89.022,675.274,98.921,687.485,98.921z"/>
	</g>
	<g clip-path="url(#SVGID_2_)">
		<circle fill="none" stroke="#000000" stroke-width="0" cx="639.487" cy="76.111" r="7.086"/>
		<path fill="none" stroke="#000000" stroke-width="0" d="M639.485,98.221c12.211,0,22.113-9.899,22.113-22.11
			c0-12.217-9.902-22.111-22.113-22.111s-22.107,9.894-22.107,22.111C617.378,88.322,627.274,98.221,639.485,98.221z"/>
	</g>
	<g clip-path="url(#SVGID_2_)">
		<circle fill="none" stroke="#000000" stroke-width="0" cx="785.487" cy="76.812" r="7.086"/>
		<path fill="none" stroke="#000000" stroke-width="0" d="M785.485,98.921c12.211,0,22.113-9.899,22.113-22.11
			c0-12.217-9.902-22.111-22.113-22.111s-22.107,9.894-22.107,22.111C763.378,89.022,773.274,98.921,785.485,98.921z"/>
	</g>
	<g clip-path="url(#SVGID_2_)">
		<circle fill="none" stroke="#000000" stroke-width="0" cx="737.487" cy="76.111" r="7.086"/>
		<path fill="none" stroke="#000000" stroke-width="0" d="M737.485,98.221c12.211,0,22.113-9.899,22.113-22.11
			c0-12.217-9.902-22.111-22.113-22.111s-22.107,9.894-22.107,22.111C715.378,88.322,725.274,98.221,737.485,98.221z"/>
	</g>
	<g clip-path="url(#SVGID_2_)">
		<circle fill="none" stroke="#000000" stroke-width="0" cx="468.487" cy="120.812" r="7.086"/>
		<path fill="none" stroke="#000000" stroke-width="0" d="M468.485,142.921c12.211,0,22.113-9.899,22.113-22.11
			c0-12.217-9.902-22.111-22.113-22.111s-22.107,9.894-22.107,22.111C446.378,133.022,456.274,142.921,468.485,142.921z"/>
	</g>
	<g clip-path="url(#SVGID_2_)">
		<circle fill="none" stroke="#000000" stroke-width="0" cx="420.487" cy="120.111" r="7.086"/>
		<path fill="none" stroke="#000000" stroke-width="0" d="M420.485,142.221c12.211,0,22.113-9.899,22.113-22.11
			c0-12.217-9.902-22.111-22.113-22.111s-22.107,9.894-22.107,22.111C398.378,132.322,408.274,142.221,420.485,142.221z"/>
	</g>
	<g clip-path="url(#SVGID_2_)">
		<circle fill="none" stroke="#000000" stroke-width="0" cx="566.487" cy="120.812" r="7.086"/>
		<path fill="none" stroke="#000000" stroke-width="0" d="M566.485,142.921c12.211,0,22.113-9.899,22.113-22.11
			c0-12.217-9.902-22.111-22.113-22.111s-22.107,9.894-22.107,22.111C544.378,133.022,554.274,142.921,566.485,142.921z"/>
	</g>
	<g clip-path="url(#SVGID_2_)">
		<circle fill="none" stroke="#000000" stroke-width="0" cx="518.487" cy="120.111" r="7.086"/>
		<path fill="none" stroke="#000000" stroke-width="0" d="M518.485,142.221c12.211,0,22.113-9.899,22.113-22.11
			c0-12.217-9.902-22.111-22.113-22.111s-22.107,9.894-22.107,22.111C496.378,132.322,506.274,142.221,518.485,142.221z"/>
	</g>
	<g clip-path="url(#SVGID_2_)">
		<circle fill="none" stroke="#000000" stroke-width="0" cx="661.487" cy="120.812" r="7.086"/>
		<path fill="none" stroke="#000000" stroke-width="0" d="M661.485,142.921c12.211,0,22.113-9.899,22.113-22.11
			c0-12.217-9.902-22.111-22.113-22.111s-22.107,9.894-22.107,22.111C639.378,133.022,649.274,142.921,661.485,142.921z"/>
	</g>
	<g clip-path="url(#SVGID_2_)">
		<circle fill="none" stroke="#000000" stroke-width="0" cx="613.487" cy="120.111" r="7.086"/>
		<path fill="none" stroke="#000000" stroke-width="0" d="M613.485,142.221c12.211,0,22.113-9.899,22.113-22.11
			c0-12.217-9.902-22.111-22.113-22.111s-22.107,9.894-22.107,22.111C591.378,132.322,601.274,142.221,613.485,142.221z"/>
	</g>
	<g clip-path="url(#SVGID_2_)">
		<circle fill="none" stroke="#000000" stroke-width="0" cx="759.487" cy="120.812" r="7.086"/>
		<path fill="none" stroke="#000000" stroke-width="0" d="M759.485,142.921c12.211,0,22.113-9.899,22.113-22.11
			c0-12.217-9.902-22.111-22.113-22.111s-22.107,9.894-22.107,22.111C737.378,133.022,747.274,142.921,759.485,142.921z"/>
	</g>
	<g clip-path="url(#SVGID_2_)">
		<circle fill="none" stroke="#000000" stroke-width="0" cx="711.487" cy="120.111" r="7.086"/>
		<path fill="none" stroke="#000000" stroke-width="0" d="M711.485,142.221c12.211,0,22.113-9.899,22.113-22.11
			c0-12.217-9.902-22.111-22.113-22.111s-22.107,9.894-22.107,22.111C689.378,132.322,699.274,142.221,711.485,142.221z"/>
	</g>
	<g clip-path="url(#SVGID_2_)">
		<circle fill="none" stroke="#000000" stroke-width="0" cx="494.487" cy="164.812" r="7.086"/>
		<path fill="none" stroke="#000000" stroke-width="0" d="M494.485,186.921c12.211,0,22.113-9.899,22.113-22.11
			c0-12.217-9.902-22.111-22.113-22.111s-22.107,9.894-22.107,22.111C472.378,177.022,482.274,186.921,494.485,186.921z"/>
	</g>
	<g clip-path="url(#SVGID_2_)">
		<circle fill="none" stroke="#000000" stroke-width="0" cx="446.487" cy="164.111" r="7.086"/>
		<path fill="none" stroke="#000000" stroke-width="0" d="M446.485,186.221c12.211,0,22.113-9.899,22.113-22.11
			c0-12.217-9.902-22.111-22.113-22.111s-22.107,9.894-22.107,22.111C424.378,176.322,434.274,186.221,446.485,186.221z"/>
	</g>
	<g clip-path="url(#SVGID_2_)">
		<circle fill="none" stroke="#000000" stroke-width="0" cx="592.487" cy="164.812" r="7.086"/>
		<path fill="none" stroke="#000000" stroke-width="0" d="M592.485,186.921c12.211,0,22.113-9.899,22.113-22.11
			c0-12.217-9.902-22.111-22.113-22.111s-22.107,9.894-22.107,22.111C570.378,177.022,580.274,186.921,592.485,186.921z"/>
	</g>
	<g clip-path="url(#SVGID_2_)">
		<circle fill="none" stroke="#000000" stroke-width="0" cx="544.487" cy="164.111" r="7.086"/>
		<path fill="none" stroke="#000000" stroke-width="0" d="M544.485,186.221c12.211,0,22.113-9.899,22.113-22.11
			c0-12.217-9.902-22.111-22.113-22.111s-22.107,9.894-22.107,22.111C522.378,176.322,532.274,186.221,544.485,186.221z"/>
	</g>
	<g clip-path="url(#SVGID_2_)">
		<circle fill="none" stroke="#000000" stroke-width="0" cx="687.487" cy="164.812" r="7.086"/>
		<path fill="none" stroke="#000000" stroke-width="0" d="M687.485,186.921c12.211,0,22.113-9.899,22.113-22.11
			c0-12.217-9.902-22.111-22.113-22.111s-22.107,9.894-22.107,22.111C665.378,177.022,675.274,186.921,687.485,186.921z"/>
	</g>
	<g clip-path="url(#SVGID_2_)">
		<circle fill="none" stroke="#000000" stroke-width="0" cx="639.487" cy="164.111" r="7.086"/>
		<path fill="none" stroke="#000000" stroke-width="0" d="M639.485,186.221c12.211,0,22.113-9.899,22.113-22.11
			c0-12.217-9.902-22.111-22.113-22.111s-22.107,9.894-22.107,22.111C617.378,176.322,627.274,186.221,639.485,186.221z"/>
	</g>
	<g clip-path="url(#SVGID_2_)">
		<circle fill="none" stroke="#000000" stroke-width="0" cx="785.487" cy="164.812" r="7.086"/>
		<path fill="none" stroke="#000000" stroke-width="0" d="M785.485,186.921c12.211,0,22.113-9.899,22.113-22.11
			c0-12.217-9.902-22.111-22.113-22.111s-22.107,9.894-22.107,22.111C763.378,177.022,773.274,186.921,785.485,186.921z"/>
	</g>
	<g clip-path="url(#SVGID_2_)">
		<circle fill="none" stroke="#000000" stroke-width="0" cx="737.487" cy="164.111" r="7.086"/>
		<path fill="none" stroke="#000000" stroke-width="0" d="M737.485,186.221c12.211,0,22.113-9.899,22.113-22.11
			c0-12.217-9.902-22.111-22.113-22.111s-22.107,9.894-22.107,22.111C715.378,176.322,725.274,186.221,737.485,186.221z"/>
	</g>
	<g clip-path="url(#SVGID_2_)">
		<circle fill="none" stroke="#000000" stroke-width="0" cx="468.487" cy="207.812" r="7.086"/>
		<path fill="none" stroke="#000000" stroke-width="0" d="M468.485,229.921c12.211,0,22.113-9.899,22.113-22.11
			c0-12.217-9.902-22.111-22.113-22.111s-22.107,9.894-22.107,22.111C446.378,220.022,456.274,229.921,468.485,229.921z"/>
	</g>
	<g clip-path="url(#SVGID_2_)">
		<circle fill="none" stroke="#000000" stroke-width="0" cx="420.487" cy="207.111" r="7.086"/>
		<path fill="none" stroke="#000000" stroke-width="0" d="M420.485,229.221c12.211,0,22.113-9.899,22.113-22.11
			c0-12.217-9.902-22.111-22.113-22.111s-22.107,9.894-22.107,22.111C398.378,219.322,408.274,229.221,420.485,229.221z"/>
	</g>
	<g clip-path="url(#SVGID_2_)">
		<circle fill="none" stroke="#000000" stroke-width="0" cx="566.487" cy="207.812" r="7.086"/>
		<path fill="none" stroke="#000000" stroke-width="0" d="M566.485,229.921c12.211,0,22.113-9.899,22.113-22.11
			c0-12.217-9.902-22.111-22.113-22.111s-22.107,9.894-22.107,22.111C544.378,220.022,554.274,229.921,566.485,229.921z"/>
	</g>
	<g clip-path="url(#SVGID_2_)">
		<circle fill="none" stroke="#000000" stroke-width="0" cx="518.487" cy="207.111" r="7.086"/>
		<path fill="none" stroke="#000000" stroke-width="0" d="M518.485,229.221c12.211,0,22.113-9.899,22.113-22.11
			c0-12.217-9.902-22.111-22.113-22.111s-22.107,9.894-22.107,22.111C496.378,219.322,506.274,229.221,518.485,229.221z"/>
	</g>
	<g clip-path="url(#SVGID_2_)">
		<circle fill="none" stroke="#000000" stroke-width="0" cx="661.487" cy="207.812" r="7.086"/>
		<path fill="none" stroke="#000000" stroke-width="0" d="M661.485,229.921c12.211,0,22.113-9.899,22.113-22.11
			c0-12.217-9.902-22.111-22.113-22.111s-22.107,9.894-22.107,22.111C639.378,220.022,649.274,229.921,661.485,229.921z"/>
	</g>
	<g clip-path="url(#SVGID_2_)">
		<circle fill="none" stroke="#000000" stroke-width="0" cx="613.487" cy="207.111" r="7.086"/>
		<path fill="none" stroke="#000000" stroke-width="0" d="M613.485,229.221c12.211,0,22.113-9.899,22.113-22.11
			c0-12.217-9.902-22.111-22.113-22.111s-22.107,9.894-22.107,22.111C591.378,219.322,601.274,229.221,613.485,229.221z"/>
	</g>
	<g clip-path="url(#SVGID_2_)">
		<circle fill="none" stroke="#000000" stroke-width="0" cx="759.487" cy="207.812" r="7.086"/>
		<path fill="none" stroke="#000000" stroke-width="0" d="M759.485,229.921c12.211,0,22.113-9.899,22.113-22.11
			c0-12.217-9.902-22.111-22.113-22.111s-22.107,9.894-22.107,22.111C737.378,220.022,747.274,229.921,759.485,229.921z"/>
	</g>
	<g clip-path="url(#SVGID_2_)">
		<circle fill="none" stroke="#000000" stroke-width="0" cx="711.487" cy="207.111" r="7.086"/>
		<path fill="none" stroke="#000000" stroke-width="0" d="M711.485,229.221c12.211,0,22.113-9.899,22.113-22.11
			c0-12.217-9.902-22.111-22.113-22.111s-22.107,9.894-22.107,22.111C689.378,219.322,699.274,229.221,711.485,229.221z"/>
	</g>
	<g clip-path="url(#SVGID_2_)">
		<circle fill="none" stroke="#000000" stroke-width="0" cx="492.487" cy="249.812" r="7.086"/>
		<path fill="none" stroke="#000000" stroke-width="0" d="M492.485,271.921c12.211,0,22.113-9.899,22.113-22.11
			c0-12.217-9.902-22.111-22.113-22.111s-22.107,9.894-22.107,22.111C470.378,262.022,480.274,271.921,492.485,271.921z"/>
	</g>
	<g clip-path="url(#SVGID_2_)">
		<circle fill="none" stroke="#000000" stroke-width="0" cx="444.487" cy="249.111" r="7.086"/>
		<path fill="none" stroke="#000000" stroke-width="0" d="M444.485,271.221c12.211,0,22.113-9.899,22.113-22.11
			c0-12.217-9.902-22.111-22.113-22.111s-22.107,9.894-22.107,22.111C422.378,261.322,432.274,271.221,444.485,271.221z"/>
	</g>
	<g clip-path="url(#SVGID_2_)">
		<circle fill="none" stroke="#000000" stroke-width="0" cx="590.487" cy="249.812" r="7.086"/>
		<path fill="none" stroke="#000000" stroke-width="0" d="M590.485,271.921c12.211,0,22.113-9.899,22.113-22.11
			c0-12.217-9.902-22.111-22.113-22.111s-22.107,9.894-22.107,22.111C568.378,262.022,578.274,271.921,590.485,271.921z"/>
	</g>
	<g clip-path="url(#SVGID_2_)">
		<circle fill="none" stroke="#000000" stroke-width="0" cx="542.487" cy="249.111" r="7.086"/>
		<path fill="none" stroke="#000000" stroke-width="0" d="M542.485,271.221c12.211,0,22.113-9.899,22.113-22.11
			c0-12.217-9.902-22.111-22.113-22.111s-22.107,9.894-22.107,22.111C520.378,261.322,530.274,271.221,542.485,271.221z"/>
	</g>
	<g clip-path="url(#SVGID_2_)">
		<circle fill="none" stroke="#000000" stroke-width="0" cx="685.487" cy="249.812" r="7.086"/>
		<path fill="none" stroke="#000000" stroke-width="0" d="M685.485,271.921c12.211,0,22.113-9.899,22.113-22.11
			c0-12.217-9.902-22.111-22.113-22.111s-22.107,9.894-22.107,22.111C663.378,262.022,673.274,271.921,685.485,271.921z"/>
	</g>
	<g clip-path="url(#SVGID_2_)">
		<circle fill="none" stroke="#000000" stroke-width="0" cx="637.487" cy="249.111" r="7.086"/>
		<path fill="none" stroke="#000000" stroke-width="0" d="M637.485,271.221c12.211,0,22.113-9.899,22.113-22.11
			c0-12.217-9.902-22.111-22.113-22.111s-22.107,9.894-22.107,22.111C615.378,261.322,625.274,271.221,637.485,271.221z"/>
	</g>
	<g clip-path="url(#SVGID_2_)">
		<circle fill="none" stroke="#000000" stroke-width="0" cx="783.487" cy="249.812" r="7.086"/>
		<path fill="none" stroke="#000000" stroke-width="0" d="M783.485,271.921c12.211,0,22.113-9.899,22.113-22.11
			c0-12.217-9.902-22.111-22.113-22.111s-22.107,9.894-22.107,22.111C761.378,262.022,771.274,271.921,783.485,271.921z"/>
	</g>
	<g clip-path="url(#SVGID_2_)">
		<circle fill="none" stroke="#000000" stroke-width="0" cx="735.487" cy="249.111" r="7.086"/>
		<path fill="none" stroke="#000000" stroke-width="0" d="M735.485,271.221c12.211,0,22.113-9.899,22.113-22.11
			c0-12.217-9.902-22.111-22.113-22.111s-22.107,9.894-22.107,22.111C713.378,261.322,723.274,271.221,735.485,271.221z"/>
	</g>
	<g clip-path="url(#SVGID_2_)">
		<circle fill="none" stroke="#000000" stroke-width="0" cx="469.487" cy="291.812" r="7.086"/>
		<path fill="none" stroke="#000000" stroke-width="0" d="M469.485,313.921c12.211,0,22.113-9.899,22.113-22.11
			c0-12.217-9.902-22.111-22.113-22.111s-22.107,9.894-22.107,22.111C447.378,304.022,457.274,313.921,469.485,313.921z"/>
	</g>
	<g clip-path="url(#SVGID_2_)">
		<circle fill="none" stroke="#000000" stroke-width="0" cx="421.487" cy="291.111" r="7.086"/>
		<path fill="none" stroke="#000000" stroke-width="0" d="M421.485,313.221c12.211,0,22.113-9.899,22.113-22.11
			c0-12.217-9.902-22.111-22.113-22.111s-22.107,9.894-22.107,22.111C399.378,303.322,409.274,313.221,421.485,313.221z"/>
	</g>
	<g clip-path="url(#SVGID_2_)">
		<circle fill="none" stroke="#000000" stroke-width="0" cx="567.487" cy="291.812" r="7.086"/>
		<path fill="none" stroke="#000000" stroke-width="0" d="M567.485,313.921c12.211,0,22.113-9.899,22.113-22.11
			c0-12.217-9.902-22.111-22.113-22.111s-22.107,9.894-22.107,22.111C545.378,304.022,555.274,313.921,567.485,313.921z"/>
	</g>
	<g clip-path="url(#SVGID_2_)">
		<circle fill="none" stroke="#000000" stroke-width="0" cx="519.487" cy="291.111" r="7.086"/>
		<path fill="none" stroke="#000000" stroke-width="0" d="M519.485,313.221c12.211,0,22.113-9.899,22.113-22.11
			c0-12.217-9.902-22.111-22.113-22.111s-22.107,9.894-22.107,22.111C497.378,303.322,507.274,313.221,519.485,313.221z"/>
	</g>
	<g clip-path="url(#SVGID_2_)">
		<circle fill="none" stroke="#000000" stroke-width="0" cx="662.487" cy="291.812" r="7.086"/>
		<path fill="none" stroke="#000000" stroke-width="0" d="M662.485,313.921c12.211,0,22.113-9.899,22.113-22.11
			c0-12.217-9.902-22.111-22.113-22.111s-22.107,9.894-22.107,22.111C640.378,304.022,650.274,313.921,662.485,313.921z"/>
	</g>
	<g clip-path="url(#SVGID_2_)">
		<circle fill="none" stroke="#000000" stroke-width="0" cx="614.487" cy="291.111" r="7.086"/>
		<path fill="none" stroke="#000000" stroke-width="0" d="M614.485,313.221c12.211,0,22.113-9.899,22.113-22.11
			c0-12.217-9.902-22.111-22.113-22.111s-22.107,9.894-22.107,22.111C592.378,303.322,602.274,313.221,614.485,313.221z"/>
	</g>
	<g clip-path="url(#SVGID_2_)">
		<circle fill="none" stroke="#000000" stroke-width="0" cx="760.487" cy="291.812" r="7.086"/>
		<path fill="none" stroke="#000000" stroke-width="0" d="M760.485,313.921c12.211,0,22.113-9.899,22.113-22.11
			c0-12.217-9.902-22.111-22.113-22.111s-22.107,9.894-22.107,22.111C738.378,304.022,748.274,313.921,760.485,313.921z"/>
	</g>
	<g clip-path="url(#SVGID_2_)">
		<circle fill="none" stroke="#000000" stroke-width="0" cx="712.487" cy="291.111" r="7.086"/>
		<path fill="none" stroke="#000000" stroke-width="0" d="M712.485,313.221c12.211,0,22.113-9.899,22.113-22.11
			c0-12.217-9.902-22.111-22.113-22.111s-22.107,9.894-22.107,22.111C690.378,303.322,700.274,313.221,712.485,313.221z"/>
	</g>
</g>
</svg>
