<?xml version="1.0" encoding="utf-8"?>
<svg version="1.1" baseProfile="full"  width="477" height="477" viewBox="0 0 477 477"
		 xmlns="http://www.w3.org/2000/svg" xmlns:xlink="http://www.w3.org/1999/xlink" xmlns:ev="http://www.w3.org/2001/xml-events">
<desc></desc>
<rect width="477" height="477" fill="#ffffff" cx="0" cy="0" />
<defs>
<rect id="p" width="9" height="9" />
</defs>
<g fill="#000000">
<use x="36" y="36" xlink:href="#p" />
<use x="36" y="45" xlink:href="#p" />
<use x="36" y="54" xlink:href="#p" />
<use x="36" y="63" xlink:href="#p" />
<use x="36" y="72" xlink:href="#p" />
<use x="36" y="81" xlink:href="#p" />
<use x="36" y="90" xlink:href="#p" />
<use x="36" y="108" xlink:href="#p" />
<use x="36" y="171" xlink:href="#p" />
<use x="36" y="189" xlink:href="#p" />
<use x="36" y="216" xlink:href="#p" />
<use x="36" y="243" xlink:href="#p" />
<use x="36" y="279" xlink:href="#p" />
<use x="36" y="288" xlink:href="#p" />
<use x="36" y="315" xlink:href="#p" />
<use x="36" y="324" xlink:href="#p" />
<use x="36" y="333" xlink:href="#p" />
<use x="36" y="360" xlink:href="#p" />
<use x="36" y="378" xlink:href="#p" />
<use x="36" y="387" xlink:href="#p" />
<use x="36" y="396" xlink:href="#p" />
<use x="36" y="405" xlink:href="#p" />
<use x="36" y="414" xlink:href="#p" />
<use x="36" y="423" xlink:href="#p" />
<use x="36" y="432" xlink:href="#p" />
<use x="45" y="36" xlink:href="#p" />
<use x="45" y="90" xlink:href="#p" />
<use x="45" y="126" xlink:href="#p" />
<use x="45" y="135" xlink:href="#p" />
<use x="45" y="153" xlink:href="#p" />
<use x="45" y="180" xlink:href="#p" />
<use x="45" y="207" xlink:href="#p" />
<use x="45" y="243" xlink:href="#p" />
<use x="45" y="252" xlink:href="#p" />
<use x="45" y="279" xlink:href="#p" />
<use x="45" y="297" xlink:href="#p" />
<use x="45" y="315" xlink:href="#p" />
<use x="45" y="324" xlink:href="#p" />
<use x="45" y="351" xlink:href="#p" />
<use x="45" y="378" xlink:href="#p" />
<use x="45" y="432" xlink:href="#p" />
<use x="54" y="36" xlink:href="#p" />
<use x="54" y="54" xlink:href="#p" />
<use x="54" y="63" xlink:href="#p" />
<use x="54" y="72" xlink:href="#p" />
<use x="54" y="90" xlink:href="#p" />
<use x="54" y="117" xlink:href="#p" />
<use x="54" y="126" xlink:href="#p" />
<use x="54" y="144" xlink:href="#p" />
<use x="54" y="153" xlink:href="#p" />
<use x="54" y="261" xlink:href="#p" />
<use x="54" y="270" xlink:href="#p" />
<use x="54" y="279" xlink:href="#p" />
<use x="54" y="297" xlink:href="#p" />
<use x="54" y="306" xlink:href="#p" />
<use x="54" y="324" xlink:href="#p" />
<use x="54" y="333" xlink:href="#p" />
<use x="54" y="351" xlink:href="#p" />
<use x="54" y="378" xlink:href="#p" />
<use x="54" y="396" xlink:href="#p" />
<use x="54" y="405" xlink:href="#p" />
<use x="54" y="414" xlink:href="#p" />
<use x="54" y="432" xlink:href="#p" />
<use x="63" y="36" xlink:href="#p" />
<use x="63" y="54" xlink:href="#p" />
<use x="63" y="63" xlink:href="#p" />
<use x="63" y="72" xlink:href="#p" />
<use x="63" y="90" xlink:href="#p" />
<use x="63" y="117" xlink:href="#p" />
<use x="63" y="144" xlink:href="#p" />
<use x="63" y="153" xlink:href="#p" />
<use x="63" y="162" xlink:href="#p" />
<use x="63" y="171" xlink:href="#p" />
<use x="63" y="189" xlink:href="#p" />
<use x="63" y="207" xlink:href="#p" />
<use x="63" y="234" xlink:href="#p" />
<use x="63" y="243" xlink:href="#p" />
<use x="63" y="288" xlink:href="#p" />
<use x="63" y="306" xlink:href="#p" />
<use x="63" y="315" xlink:href="#p" />
<use x="63" y="324" xlink:href="#p" />
<use x="63" y="351" xlink:href="#p" />
<use x="63" y="360" xlink:href="#p" />
<use x="63" y="378" xlink:href="#p" />
<use x="63" y="396" xlink:href="#p" />
<use x="63" y="405" xlink:href="#p" />
<use x="63" y="414" xlink:href="#p" />
<use x="63" y="432" xlink:href="#p" />
<use x="72" y="36" xlink:href="#p" />
<use x="72" y="54" xlink:href="#p" />
<use x="72" y="63" xlink:href="#p" />
<use x="72" y="72" xlink:href="#p" />
<use x="72" y="90" xlink:href="#p" />
<use x="72" y="117" xlink:href="#p" />
<use x="72" y="135" xlink:href="#p" />
<use x="72" y="153" xlink:href="#p" />
<use x="72" y="162" xlink:href="#p" />
<use x="72" y="171" xlink:href="#p" />
<use x="72" y="189" xlink:href="#p" />
<use x="72" y="207" xlink:href="#p" />
<use x="72" y="216" xlink:href="#p" />
<use x="72" y="225" xlink:href="#p" />
<use x="72" y="234" xlink:href="#p" />
<use x="72" y="243" xlink:href="#p" />
<use x="72" y="252" xlink:href="#p" />
<use x="72" y="270" xlink:href="#p" />
<use x="72" y="279" xlink:href="#p" />
<use x="72" y="288" xlink:href="#p" />
<use x="72" y="297" xlink:href="#p" />
<use x="72" y="315" xlink:href="#p" />
<use x="72" y="333" xlink:href="#p" />
<use x="72" y="342" xlink:href="#p" />
<use x="72" y="351" xlink:href="#p" />
<use x="72" y="360" xlink:href="#p" />
<use x="72" y="378" xlink:href="#p" />
<use x="72" y="396" xlink:href="#p" />
<use x="72" y="405" xlink:href="#p" />
<use x="72" y="414" xlink:href="#p" />
<use x="72" y="432" xlink:href="#p" />
<use x="81" y="36" xlink:href="#p" />
<use x="81" y="90" xlink:href="#p" />
<use x="81" y="126" xlink:href="#p" />
<use x="81" y="135" xlink:href="#p" />
<use x="81" y="144" xlink:href="#p" />
<use x="81" y="189" xlink:href="#p" />
<use x="81" y="207" xlink:href="#p" />
<use x="81" y="216" xlink:href="#p" />
<use x="81" y="252" xlink:href="#p" />
<use x="81" y="279" xlink:href="#p" />
<use x="81" y="324" xlink:href="#p" />
<use x="81" y="333" xlink:href="#p" />
<use x="81" y="378" xlink:href="#p" />
<use x="81" y="432" xlink:href="#p" />
<use x="90" y="36" xlink:href="#p" />
<use x="90" y="45" xlink:href="#p" />
<use x="90" y="54" xlink:href="#p" />
<use x="90" y="63" xlink:href="#p" />
<use x="90" y="72" xlink:href="#p" />
<use x="90" y="81" xlink:href="#p" />
<use x="90" y="90" xlink:href="#p" />
<use x="90" y="108" xlink:href="#p" />
<use x="90" y="126" xlink:href="#p" />
<use x="90" y="144" xlink:href="#p" />
<use x="90" y="162" xlink:href="#p" />
<use x="90" y="180" xlink:href="#p" />
<use x="90" y="198" xlink:href="#p" />
<use x="90" y="216" xlink:href="#p" />
<use x="90" y="234" xlink:href="#p" />
<use x="90" y="252" xlink:href="#p" />
<use x="90" y="270" xlink:href="#p" />
<use x="90" y="288" xlink:href="#p" />
<use x="90" y="306" xlink:href="#p" />
<use x="90" y="324" xlink:href="#p" />
<use x="90" y="342" xlink:href="#p" />
<use x="90" y="360" xlink:href="#p" />
<use x="90" y="378" xlink:href="#p" />
<use x="90" y="387" xlink:href="#p" />
<use x="90" y="396" xlink:href="#p" />
<use x="90" y="405" xlink:href="#p" />
<use x="90" y="414" xlink:href="#p" />
<use x="90" y="423" xlink:href="#p" />
<use x="90" y="432" xlink:href="#p" />
<use x="99" y="126" xlink:href="#p" />
<use x="99" y="135" xlink:href="#p" />
<use x="99" y="153" xlink:href="#p" />
<use x="99" y="162" xlink:href="#p" />
<use x="99" y="171" xlink:href="#p" />
<use x="99" y="180" xlink:href="#p" />
<use x="99" y="189" xlink:href="#p" />
<use x="99" y="207" xlink:href="#p" />
<use x="99" y="216" xlink:href="#p" />
<use x="99" y="252" xlink:href="#p" />
<use x="99" y="297" xlink:href="#p" />
<use x="99" y="306" xlink:href="#p" />
<use x="99" y="333" xlink:href="#p" />
<use x="108" y="45" xlink:href="#p" />
<use x="108" y="54" xlink:href="#p" />
<use x="108" y="63" xlink:href="#p" />
<use x="108" y="90" xlink:href="#p" />
<use x="108" y="99" xlink:href="#p" />
<use x="108" y="108" xlink:href="#p" />
<use x="108" y="117" xlink:href="#p" />
<use x="108" y="153" xlink:href="#p" />
<use x="108" y="162" xlink:href="#p" />
<use x="108" y="171" xlink:href="#p" />
<use x="108" y="189" xlink:href="#p" />
<use x="108" y="198" xlink:href="#p" />
<use x="108" y="216" xlink:href="#p" />
<use x="108" y="225" xlink:href="#p" />
<use x="108" y="234" xlink:href="#p" />
<use x="108" y="243" xlink:href="#p" />
<use x="108" y="252" xlink:href="#p" />
<use x="108" y="288" xlink:href="#p" />
<use x="108" y="306" xlink:href="#p" />
<use x="108" y="333" xlink:href="#p" />
<use x="108" y="351" xlink:href="#p" />
<use x="108" y="369" xlink:href="#p" />
<use x="108" y="432" xlink:href="#p" />
<use x="117" y="72" xlink:href="#p" />
<use x="117" y="108" xlink:href="#p" />
<use x="117" y="126" xlink:href="#p" />
<use x="117" y="144" xlink:href="#p" />
<use x="117" y="153" xlink:href="#p" />
<use x="117" y="171" xlink:href="#p" />
<use x="117" y="198" xlink:href="#p" />
<use x="117" y="207" xlink:href="#p" />
<use x="117" y="234" xlink:href="#p" />
<use x="117" y="252" xlink:href="#p" />
<use x="117" y="270" xlink:href="#p" />
<use x="117" y="279" xlink:href="#p" />
<use x="117" y="306" xlink:href="#p" />
<use x="117" y="324" xlink:href="#p" />
<use x="117" y="333" xlink:href="#p" />
<use x="117" y="342" xlink:href="#p" />
<use x="117" y="369" xlink:href="#p" />
<use x="117" y="378" xlink:href="#p" />
<use x="117" y="414" xlink:href="#p" />
<use x="117" y="432" xlink:href="#p" />
<use x="126" y="36" xlink:href="#p" />
<use x="126" y="45" xlink:href="#p" />
<use x="126" y="90" xlink:href="#p" />
<use x="126" y="135" xlink:href="#p" />
<use x="126" y="144" xlink:href="#p" />
<use x="126" y="198" xlink:href="#p" />
<use x="126" y="216" xlink:href="#p" />
<use x="126" y="243" xlink:href="#p" />
<use x="126" y="270" xlink:href="#p" />
<use x="126" y="279" xlink:href="#p" />
<use x="126" y="288" xlink:href="#p" />
<use x="126" y="315" xlink:href="#p" />
<use x="126" y="324" xlink:href="#p" />
<use x="126" y="378" xlink:href="#p" />
<use x="126" y="396" xlink:href="#p" />
<use x="126" y="405" xlink:href="#p" />
<use x="126" y="414" xlink:href="#p" />
<use x="135" y="36" xlink:href="#p" />
<use x="135" y="54" xlink:href="#p" />
<use x="135" y="72" xlink:href="#p" />
<use x="135" y="117" xlink:href="#p" />
<use x="135" y="126" xlink:href="#p" />
<use x="135" y="162" xlink:href="#p" />
<use x="135" y="171" xlink:href="#p" />
<use x="135" y="180" xlink:href="#p" />
<use x="135" y="189" xlink:href="#p" />
<use x="135" y="198" xlink:href="#p" />
<use x="135" y="225" xlink:href="#p" />
<use x="135" y="234" xlink:href="#p" />
<use x="135" y="252" xlink:href="#p" />
<use x="135" y="270" xlink:href="#p" />
<use x="135" y="279" xlink:href="#p" />
<use x="135" y="297" xlink:href="#p" />
<use x="135" y="324" xlink:href="#p" />
<use x="135" y="333" xlink:href="#p" />
<use x="135" y="342" xlink:href="#p" />
<use x="135" y="351" xlink:href="#p" />
<use x="135" y="360" xlink:href="#p" />
<use x="135" y="378" xlink:href="#p" />
<use x="135" y="387" xlink:href="#p" />
<use x="135" y="396" xlink:href="#p" />
<use x="135" y="405" xlink:href="#p" />
<use x="135" y="423" xlink:href="#p" />
<use x="135" y="432" xlink:href="#p" />
<use x="144" y="45" xlink:href="#p" />
<use x="144" y="81" xlink:href="#p" />
<use x="144" y="90" xlink:href="#p" />
<use x="144" y="99" xlink:href="#p" />
<use x="144" y="108" xlink:href="#p" />
<use x="144" y="126" xlink:href="#p" />
<use x="144" y="144" xlink:href="#p" />
<use x="144" y="162" xlink:href="#p" />
<use x="144" y="198" xlink:href="#p" />
<use x="144" y="207" xlink:href="#p" />
<use x="144" y="234" xlink:href="#p" />
<use x="144" y="279" xlink:href="#p" />
<use x="144" y="288" xlink:href="#p" />
<use x="144" y="297" xlink:href="#p" />
<use x="144" y="324" xlink:href="#p" />
<use x="144" y="333" xlink:href="#p" />
<use x="144" y="351" xlink:href="#p" />
<use x="144" y="387" xlink:href="#p" />
<use x="144" y="414" xlink:href="#p" />
<use x="144" y="432" xlink:href="#p" />
<use x="153" y="36" xlink:href="#p" />
<use x="153" y="54" xlink:href="#p" />
<use x="153" y="72" xlink:href="#p" />
<use x="153" y="81" xlink:href="#p" />
<use x="153" y="99" xlink:href="#p" />
<use x="153" y="108" xlink:href="#p" />
<use x="153" y="126" xlink:href="#p" />
<use x="153" y="135" xlink:href="#p" />
<use x="153" y="153" xlink:href="#p" />
<use x="153" y="171" xlink:href="#p" />
<use x="153" y="189" xlink:href="#p" />
<use x="153" y="225" xlink:href="#p" />
<use x="153" y="243" xlink:href="#p" />
<use x="153" y="288" xlink:href="#p" />
<use x="153" y="306" xlink:href="#p" />
<use x="153" y="324" xlink:href="#p" />
<use x="153" y="342" xlink:href="#p" />
<use x="153" y="351" xlink:href="#p" />
<use x="153" y="369" xlink:href="#p" />
<use x="153" y="387" xlink:href="#p" />
<use x="153" y="405" xlink:href="#p" />
<use x="162" y="45" xlink:href="#p" />
<use x="162" y="63" xlink:href="#p" />
<use x="162" y="90" xlink:href="#p" />
<use x="162" y="99" xlink:href="#p" />
<use x="162" y="126" xlink:href="#p" />
<use x="162" y="144" xlink:href="#p" />
<use x="162" y="162" xlink:href="#p" />
<use x="162" y="180" xlink:href="#p" />
<use x="162" y="189" xlink:href="#p" />
<use x="162" y="198" xlink:href="#p" />
<use x="162" y="207" xlink:href="#p" />
<use x="162" y="225" xlink:href="#p" />
<use x="162" y="252" xlink:href="#p" />
<use x="162" y="270" xlink:href="#p" />
<use x="162" y="297" xlink:href="#p" />
<use x="162" y="306" xlink:href="#p" />
<use x="162" y="315" xlink:href="#p" />
<use x="162" y="324" xlink:href="#p" />
<use x="162" y="369" xlink:href="#p" />
<use x="162" y="378" xlink:href="#p" />
<use x="162" y="387" xlink:href="#p" />
<use x="162" y="396" xlink:href="#p" />
<use x="162" y="405" xlink:href="#p" />
<use x="162" y="423" xlink:href="#p" />
<use x="162" y="432" xlink:href="#p" />
<use x="171" y="36" xlink:href="#p" />
<use x="171" y="54" xlink:href="#p" />
<use x="171" y="108" xlink:href="#p" />
<use x="171" y="117" xlink:href="#p" />
<use x="171" y="171" xlink:href="#p" />
<use x="171" y="180" xlink:href="#p" />
<use x="171" y="198" xlink:href="#p" />
<use x="171" y="216" xlink:href="#p" />
<use x="171" y="225" xlink:href="#p" />
<use x="171" y="252" xlink:href="#p" />
<use x="171" y="279" xlink:href="#p" />
<use x="171" y="288" xlink:href="#p" />
<use x="171" y="315" xlink:href="#p" />
<use x="171" y="324" xlink:href="#p" />
<use x="171" y="333" xlink:href="#p" />
<use x="171" y="351" xlink:href="#p" />
<use x="171" y="360" xlink:href="#p" />
<use x="171" y="414" xlink:href="#p" />
<use x="171" y="423" xlink:href="#p" />
<use x="180" y="63" xlink:href="#p" />
<use x="180" y="72" xlink:href="#p" />
<use x="180" y="90" xlink:href="#p" />
<use x="180" y="108" xlink:href="#p" />
<use x="180" y="117" xlink:href="#p" />
<use x="180" y="126" xlink:href="#p" />
<use x="180" y="144" xlink:href="#p" />
<use x="180" y="162" xlink:href="#p" />
<use x="180" y="180" xlink:href="#p" />
<use x="180" y="198" xlink:href="#p" />
<use x="180" y="207" xlink:href="#p" />
<use x="180" y="234" xlink:href="#p" />
<use x="180" y="243" xlink:href="#p" />
<use x="180" y="252" xlink:href="#p" />
<use x="180" y="261" xlink:href="#p" />
<use x="180" y="270" xlink:href="#p" />
<use x="180" y="279" xlink:href="#p" />
<use x="180" y="360" xlink:href="#p" />
<use x="180" y="378" xlink:href="#p" />
<use x="180" y="414" xlink:href="#p" />
<use x="180" y="432" xlink:href="#p" />
<use x="189" y="36" xlink:href="#p" />
<use x="189" y="54" xlink:href="#p" />
<use x="189" y="63" xlink:href="#p" />
<use x="189" y="81" xlink:href="#p" />
<use x="189" y="99" xlink:href="#p" />
<use x="189" y="135" xlink:href="#p" />
<use x="189" y="198" xlink:href="#p" />
<use x="189" y="216" xlink:href="#p" />
<use x="189" y="234" xlink:href="#p" />
<use x="189" y="270" xlink:href="#p" />
<use x="189" y="279" xlink:href="#p" />
<use x="189" y="297" xlink:href="#p" />
<use x="189" y="306" xlink:href="#p" />
<use x="189" y="324" xlink:href="#p" />
<use x="189" y="360" xlink:href="#p" />
<use x="189" y="405" xlink:href="#p" />
<use x="189" y="414" xlink:href="#p" />
<use x="189" y="423" xlink:href="#p" />
<use x="189" y="432" xlink:href="#p" />
<use x="198" y="54" xlink:href="#p" />
<use x="198" y="63" xlink:href="#p" />
<use x="198" y="81" xlink:href="#p" />
<use x="198" y="90" xlink:href="#p" />
<use x="198" y="108" xlink:href="#p" />
<use x="198" y="117" xlink:href="#p" />
<use x="198" y="126" xlink:href="#p" />
<use x="198" y="144" xlink:href="#p" />
<use x="198" y="162" xlink:href="#p" />
<use x="198" y="180" xlink:href="#p" />
<use x="198" y="198" xlink:href="#p" />
<use x="198" y="216" xlink:href="#p" />
<use x="198" y="261" xlink:href="#p" />
<use x="198" y="279" xlink:href="#p" />
<use x="198" y="297" xlink:href="#p" />
<use x="198" y="342" xlink:href="#p" />
<use x="198" y="351" xlink:href="#p" />
<use x="198" y="378" xlink:href="#p" />
<use x="198" y="432" xlink:href="#p" />
<use x="207" y="45" xlink:href="#p" />
<use x="207" y="54" xlink:href="#p" />
<use x="207" y="63" xlink:href="#p" />
<use x="207" y="72" xlink:href="#p" />
<use x="207" y="99" xlink:href="#p" />
<use x="207" y="117" xlink:href="#p" />
<use x="207" y="135" xlink:href="#p" />
<use x="207" y="144" xlink:href="#p" />
<use x="207" y="153" xlink:href="#p" />
<use x="207" y="171" xlink:href="#p" />
<use x="207" y="198" xlink:href="#p" />
<use x="207" y="207" xlink:href="#p" />
<use x="207" y="234" xlink:href="#p" />
<use x="207" y="243" xlink:href="#p" />
<use x="207" y="252" xlink:href="#p" />
<use x="207" y="261" xlink:href="#p" />
<use x="207" y="297" xlink:href="#p" />
<use x="207" y="306" xlink:href="#p" />
<use x="207" y="315" xlink:href="#p" />
<use x="207" y="333" xlink:href="#p" />
<use x="207" y="378" xlink:href="#p" />
<use x="207" y="387" xlink:href="#p" />
<use x="207" y="414" xlink:href="#p" />
<use x="207" y="432" xlink:href="#p" />
<use x="216" y="36" xlink:href="#p" />
<use x="216" y="45" xlink:href="#p" />
<use x="216" y="54" xlink:href="#p" />
<use x="216" y="72" xlink:href="#p" />
<use x="216" y="81" xlink:href="#p" />
<use x="216" y="90" xlink:href="#p" />
<use x="216" y="99" xlink:href="#p" />
<use x="216" y="108" xlink:href="#p" />
<use x="216" y="117" xlink:href="#p" />
<use x="216" y="126" xlink:href="#p" />
<use x="216" y="162" xlink:href="#p" />
<use x="216" y="171" xlink:href="#p" />
<use x="216" y="189" xlink:href="#p" />
<use x="216" y="216" xlink:href="#p" />
<use x="216" y="225" xlink:href="#p" />
<use x="216" y="234" xlink:href="#p" />
<use x="216" y="243" xlink:href="#p" />
<use x="216" y="252" xlink:href="#p" />
<use x="216" y="261" xlink:href="#p" />
<use x="216" y="288" xlink:href="#p" />
<use x="216" y="297" xlink:href="#p" />
<use x="216" y="360" xlink:href="#p" />
<use x="216" y="369" xlink:href="#p" />
<use x="216" y="378" xlink:href="#p" />
<use x="216" y="387" xlink:href="#p" />
<use x="216" y="396" xlink:href="#p" />
<use x="216" y="405" xlink:href="#p" />
<use x="216" y="414" xlink:href="#p" />
<use x="216" y="423" xlink:href="#p" />
<use x="225" y="54" xlink:href="#p" />
<use x="225" y="72" xlink:href="#p" />
<use x="225" y="108" xlink:href="#p" />
<use x="225" y="117" xlink:href="#p" />
<use x="225" y="126" xlink:href="#p" />
<use x="225" y="135" xlink:href="#p" />
<use x="225" y="144" xlink:href="#p" />
<use x="225" y="153" xlink:href="#p" />
<use x="225" y="180" xlink:href="#p" />
<use x="225" y="198" xlink:href="#p" />
<use x="225" y="207" xlink:href="#p" />
<use x="225" y="216" xlink:href="#p" />
<use x="225" y="252" xlink:href="#p" />
<use x="225" y="261" xlink:href="#p" />
<use x="225" y="279" xlink:href="#p" />
<use x="225" y="315" xlink:href="#p" />
<use x="225" y="333" xlink:href="#p" />
<use x="225" y="360" xlink:href="#p" />
<use x="225" y="396" xlink:href="#p" />
<use x="225" y="405" xlink:href="#p" />
<use x="225" y="432" xlink:href="#p" />
<use x="234" y="45" xlink:href="#p" />
<use x="234" y="72" xlink:href="#p" />
<use x="234" y="90" xlink:href="#p" />
<use x="234" y="108" xlink:href="#p" />
<use x="234" y="126" xlink:href="#p" />
<use x="234" y="144" xlink:href="#p" />
<use x="234" y="171" xlink:href="#p" />
<use x="234" y="180" xlink:href="#p" />
<use x="234" y="216" xlink:href="#p" />
<use x="234" y="234" xlink:href="#p" />
<use x="234" y="252" xlink:href="#p" />
<use x="234" y="261" xlink:href="#p" />
<use x="234" y="270" xlink:href="#p" />
<use x="234" y="297" xlink:href="#p" />
<use x="234" y="306" xlink:href="#p" />
<use x="234" y="342" xlink:href="#p" />
<use x="234" y="351" xlink:href="#p" />
<use x="234" y="360" xlink:href="#p" />
<use x="234" y="378" xlink:href="#p" />
<use x="234" y="396" xlink:href="#p" />
<use x="243" y="72" xlink:href="#p" />
<use x="243" y="108" xlink:href="#p" />
<use x="243" y="126" xlink:href="#p" />
<use x="243" y="162" xlink:href="#p" />
<use x="243" y="171" xlink:href="#p" />
<use x="243" y="180" xlink:href="#p" />
<use x="243" y="207" xlink:href="#p" />
<use x="243" y="216" xlink:href="#p" />
<use x="243" y="252" xlink:href="#p" />
<use x="243" y="261" xlink:href="#p" />
<use x="243" y="270" xlink:href="#p" />
<use x="243" y="279" xlink:href="#p" />
<use x="243" y="297" xlink:href="#p" />
<use x="243" y="306" xlink:href="#p" />
<use x="243" y="315" xlink:href="#p" />
<use x="243" y="324" xlink:href="#p" />
<use x="243" y="333" xlink:href="#p" />
<use x="243" y="351" xlink:href="#p" />
<use x="243" y="360" xlink:href="#p" />
<use x="243" y="396" xlink:href="#p" />
<use x="243" y="405" xlink:href="#p" />
<use x="243" y="414" xlink:href="#p" />
<use x="243" y="432" xlink:href="#p" />
<use x="252" y="45" xlink:href="#p" />
<use x="252" y="54" xlink:href="#p" />
<use x="252" y="63" xlink:href="#p" />
<use x="252" y="72" xlink:href="#p" />
<use x="252" y="81" xlink:href="#p" />
<use x="252" y="90" xlink:href="#p" />
<use x="252" y="99" xlink:href="#p" />
<use x="252" y="108" xlink:href="#p" />
<use x="252" y="126" xlink:href="#p" />
<use x="252" y="162" xlink:href="#p" />
<use x="252" y="180" xlink:href="#p" />
<use x="252" y="198" xlink:href="#p" />
<use x="252" y="216" xlink:href="#p" />
<use x="252" y="225" xlink:href="#p" />
<use x="252" y="234" xlink:href="#p" />
<use x="252" y="243" xlink:href="#p" />
<use x="252" y="252" xlink:href="#p" />
<use x="252" y="279" xlink:href="#p" />
<use x="252" y="315" xlink:href="#p" />
<use x="252" y="351" xlink:href="#p" />
<use x="252" y="360" xlink:href="#p" />
<use x="252" y="369" xlink:href="#p" />
<use x="252" y="378" xlink:href="#p" />
<use x="252" y="387" xlink:href="#p" />
<use x="252" y="396" xlink:href="#p" />
<use x="252" y="405" xlink:href="#p" />
<use x="252" y="432" xlink:href="#p" />
<use x="261" y="63" xlink:href="#p" />
<use x="261" y="72" xlink:href="#p" />
<use x="261" y="81" xlink:href="#p" />
<use x="261" y="99" xlink:href="#p" />
<use x="261" y="108" xlink:href="#p" />
<use x="261" y="117" xlink:href="#p" />
<use x="261" y="126" xlink:href="#p" />
<use x="261" y="153" xlink:href="#p" />
<use x="261" y="162" xlink:href="#p" />
<use x="261" y="171" xlink:href="#p" />
<use x="261" y="180" xlink:href="#p" />
<use x="261" y="189" xlink:href="#p" />
<use x="261" y="225" xlink:href="#p" />
<use x="261" y="252" xlink:href="#p" />
<use x="261" y="261" xlink:href="#p" />
<use x="261" y="279" xlink:href="#p" />
<use x="261" y="297" xlink:href="#p" />
<use x="261" y="306" xlink:href="#p" />
<use x="261" y="324" xlink:href="#p" />
<use x="261" y="333" xlink:href="#p" />
<use x="261" y="369" xlink:href="#p" />
<use x="261" y="387" xlink:href="#p" />
<use x="261" y="396" xlink:href="#p" />
<use x="261" y="405" xlink:href="#p" />
<use x="261" y="414" xlink:href="#p" />
<use x="261" y="432" xlink:href="#p" />
<use x="270" y="36" xlink:href="#p" />
<use x="270" y="45" xlink:href="#p" />
<use x="270" y="63" xlink:href="#p" />
<use x="270" y="81" xlink:href="#p" />
<use x="270" y="90" xlink:href="#p" />
<use x="270" y="99" xlink:href="#p" />
<use x="270" y="108" xlink:href="#p" />
<use x="270" y="117" xlink:href="#p" />
<use x="270" y="126" xlink:href="#p" />
<use x="270" y="135" xlink:href="#p" />
<use x="270" y="144" xlink:href="#p" />
<use x="270" y="162" xlink:href="#p" />
<use x="270" y="171" xlink:href="#p" />
<use x="270" y="207" xlink:href="#p" />
<use x="270" y="216" xlink:href="#p" />
<use x="270" y="225" xlink:href="#p" />
<use x="270" y="234" xlink:href="#p" />
<use x="270" y="252" xlink:href="#p" />
<use x="270" y="270" xlink:href="#p" />
<use x="270" y="279" xlink:href="#p" />
<use x="270" y="324" xlink:href="#p" />
<use x="270" y="333" xlink:href="#p" />
<use x="270" y="342" xlink:href="#p" />
<use x="270" y="351" xlink:href="#p" />
<use x="270" y="360" xlink:href="#p" />
<use x="270" y="378" xlink:href="#p" />
<use x="270" y="387" xlink:href="#p" />
<use x="270" y="423" xlink:href="#p" />
<use x="279" y="36" xlink:href="#p" />
<use x="279" y="45" xlink:href="#p" />
<use x="279" y="54" xlink:href="#p" />
<use x="279" y="63" xlink:href="#p" />
<use x="279" y="72" xlink:href="#p" />
<use x="279" y="117" xlink:href="#p" />
<use x="279" y="225" xlink:href="#p" />
<use x="279" y="234" xlink:href="#p" />
<use x="279" y="252" xlink:href="#p" />
<use x="279" y="261" xlink:href="#p" />
<use x="279" y="279" xlink:href="#p" />
<use x="279" y="333" xlink:href="#p" />
<use x="279" y="378" xlink:href="#p" />
<use x="279" y="405" xlink:href="#p" />
<use x="279" y="423" xlink:href="#p" />
<use x="288" y="36" xlink:href="#p" />
<use x="288" y="54" xlink:href="#p" />
<use x="288" y="63" xlink:href="#p" />
<use x="288" y="72" xlink:href="#p" />
<use x="288" y="90" xlink:href="#p" />
<use x="288" y="99" xlink:href="#p" />
<use x="288" y="126" xlink:href="#p" />
<use x="288" y="135" xlink:href="#p" />
<use x="288" y="144" xlink:href="#p" />
<use x="288" y="171" xlink:href="#p" />
<use x="288" y="189" xlink:href="#p" />
<use x="288" y="207" xlink:href="#p" />
<use x="288" y="225" xlink:href="#p" />
<use x="288" y="234" xlink:href="#p" />
<use x="288" y="243" xlink:href="#p" />
<use x="288" y="252" xlink:href="#p" />
<use x="288" y="270" xlink:href="#p" />
<use x="288" y="306" xlink:href="#p" />
<use x="288" y="315" xlink:href="#p" />
<use x="288" y="333" xlink:href="#p" />
<use x="288" y="351" xlink:href="#p" />
<use x="288" y="360" xlink:href="#p" />
<use x="288" y="378" xlink:href="#p" />
<use x="288" y="405" xlink:href="#p" />
<use x="288" y="423" xlink:href="#p" />
<use x="297" y="36" xlink:href="#p" />
<use x="297" y="54" xlink:href="#p" />
<use x="297" y="63" xlink:href="#p" />
<use x="297" y="72" xlink:href="#p" />
<use x="297" y="99" xlink:href="#p" />
<use x="297" y="108" xlink:href="#p" />
<use x="297" y="117" xlink:href="#p" />
<use x="297" y="135" xlink:href="#p" />
<use x="297" y="153" xlink:href="#p" />
<use x="297" y="171" xlink:href="#p" />
<use x="297" y="189" xlink:href="#p" />
<use x="297" y="198" xlink:href="#p" />
<use x="297" y="207" xlink:href="#p" />
<use x="297" y="216" xlink:href="#p" />
<use x="297" y="225" xlink:href="#p" />
<use x="297" y="234" xlink:href="#p" />
<use x="297" y="243" xlink:href="#p" />
<use x="297" y="261" xlink:href="#p" />
<use x="297" y="270" xlink:href="#p" />
<use x="297" y="279" xlink:href="#p" />
<use x="297" y="288" xlink:href="#p" />
<use x="297" y="297" xlink:href="#p" />
<use x="297" y="306" xlink:href="#p" />
<use x="297" y="324" xlink:href="#p" />
<use x="297" y="333" xlink:href="#p" />
<use x="297" y="360" xlink:href="#p" />
<use x="297" y="369" xlink:href="#p" />
<use x="297" y="405" xlink:href="#p" />
<use x="297" y="414" xlink:href="#p" />
<use x="297" y="423" xlink:href="#p" />
<use x="297" y="432" xlink:href="#p" />
<use x="306" y="36" xlink:href="#p" />
<use x="306" y="63" xlink:href="#p" />
<use x="306" y="72" xlink:href="#p" />
<use x="306" y="81" xlink:href="#p" />
<use x="306" y="90" xlink:href="#p" />
<use x="306" y="117" xlink:href="#p" />
<use x="306" y="126" xlink:href="#p" />
<use x="306" y="153" xlink:href="#p" />
<use x="306" y="189" xlink:href="#p" />
<use x="306" y="207" xlink:href="#p" />
<use x="306" y="216" xlink:href="#p" />
<use x="306" y="225" xlink:href="#p" />
<use x="306" y="261" xlink:href="#p" />
<use x="306" y="279" xlink:href="#p" />
<use x="306" y="297" xlink:href="#p" />
<use x="306" y="315" xlink:href="#p" />
<use x="306" y="333" xlink:href="#p" />
<use x="306" y="360" xlink:href="#p" />
<use x="306" y="369" xlink:href="#p" />
<use x="306" y="387" xlink:href="#p" />
<use x="306" y="396" xlink:href="#p" />
<use x="306" y="405" xlink:href="#p" />
<use x="306" y="423" xlink:href="#p" />
<use x="306" y="432" xlink:href="#p" />
<use x="315" y="36" xlink:href="#p" />
<use x="315" y="63" xlink:href="#p" />
<use x="315" y="117" xlink:href="#p" />
<use x="315" y="144" xlink:href="#p" />
<use x="315" y="162" xlink:href="#p" />
<use x="315" y="180" xlink:href="#p" />
<use x="315" y="189" xlink:href="#p" />
<use x="315" y="207" xlink:href="#p" />
<use x="315" y="216" xlink:href="#p" />
<use x="315" y="243" xlink:href="#p" />
<use x="315" y="288" xlink:href="#p" />
<use x="315" y="297" xlink:href="#p" />
<use x="315" y="315" xlink:href="#p" />
<use x="315" y="324" xlink:href="#p" />
<use x="315" y="351" xlink:href="#p" />
<use x="315" y="369" xlink:href="#p" />
<use x="315" y="378" xlink:href="#p" />
<use x="315" y="387" xlink:href="#p" />
<use x="315" y="396" xlink:href="#p" />
<use x="315" y="405" xlink:href="#p" />
<use x="315" y="432" xlink:href="#p" />
<use x="324" y="54" xlink:href="#p" />
<use x="324" y="63" xlink:href="#p" />
<use x="324" y="72" xlink:href="#p" />
<use x="324" y="90" xlink:href="#p" />
<use x="324" y="99" xlink:href="#p" />
<use x="324" y="135" xlink:href="#p" />
<use x="324" y="144" xlink:href="#p" />
<use x="324" y="153" xlink:href="#p" />
<use x="324" y="162" xlink:href="#p" />
<use x="324" y="198" xlink:href="#p" />
<use x="324" y="207" xlink:href="#p" />
<use x="324" y="225" xlink:href="#p" />
<use x="324" y="243" xlink:href="#p" />
<use x="324" y="252" xlink:href="#p" />
<use x="324" y="261" xlink:href="#p" />
<use x="324" y="297" xlink:href="#p" />
<use x="324" y="306" xlink:href="#p" />
<use x="324" y="315" xlink:href="#p" />
<use x="324" y="333" xlink:href="#p" />
<use x="324" y="342" xlink:href="#p" />
<use x="324" y="351" xlink:href="#p" />
<use x="324" y="360" xlink:href="#p" />
<use x="324" y="369" xlink:href="#p" />
<use x="324" y="378" xlink:href="#p" />
<use x="324" y="414" xlink:href="#p" />
<use x="324" y="423" xlink:href="#p" />
<use x="333" y="36" xlink:href="#p" />
<use x="333" y="45" xlink:href="#p" />
<use x="333" y="54" xlink:href="#p" />
<use x="333" y="63" xlink:href="#p" />
<use x="333" y="81" xlink:href="#p" />
<use x="333" y="99" xlink:href="#p" />
<use x="333" y="117" xlink:href="#p" />
<use x="333" y="126" xlink:href="#p" />
<use x="333" y="135" xlink:href="#p" />
<use x="333" y="153" xlink:href="#p" />
<use x="333" y="189" xlink:href="#p" />
<use x="333" y="207" xlink:href="#p" />
<use x="333" y="225" xlink:href="#p" />
<use x="333" y="261" xlink:href="#p" />
<use x="333" y="297" xlink:href="#p" />
<use x="333" y="306" xlink:href="#p" />
<use x="333" y="315" xlink:href="#p" />
<use x="333" y="324" xlink:href="#p" />
<use x="333" y="333" xlink:href="#p" />
<use x="333" y="342" xlink:href="#p" />
<use x="333" y="351" xlink:href="#p" />
<use x="333" y="360" xlink:href="#p" />
<use x="333" y="369" xlink:href="#p" />
<use x="333" y="378" xlink:href="#p" />
<use x="333" y="387" xlink:href="#p" />
<use x="333" y="396" xlink:href="#p" />
<use x="333" y="405" xlink:href="#p" />
<use x="333" y="414" xlink:href="#p" />
<use x="342" y="72" xlink:href="#p" />
<use x="342" y="90" xlink:href="#p" />
<use x="342" y="108" xlink:href="#p" />
<use x="342" y="117" xlink:href="#p" />
<use x="342" y="126" xlink:href="#p" />
<use x="342" y="144" xlink:href="#p" />
<use x="342" y="162" xlink:href="#p" />
<use x="342" y="171" xlink:href="#p" />
<use x="342" y="180" xlink:href="#p" />
<use x="342" y="225" xlink:href="#p" />
<use x="342" y="234" xlink:href="#p" />
<use x="342" y="243" xlink:href="#p" />
<use x="342" y="252" xlink:href="#p" />
<use x="342" y="270" xlink:href="#p" />
<use x="342" y="279" xlink:href="#p" />
<use x="342" y="288" xlink:href="#p" />
<use x="342" y="333" xlink:href="#p" />
<use x="342" y="342" xlink:href="#p" />
<use x="342" y="360" xlink:href="#p" />
<use x="342" y="378" xlink:href="#p" />
<use x="342" y="387" xlink:href="#p" />
<use x="342" y="423" xlink:href="#p" />
<use x="351" y="45" xlink:href="#p" />
<use x="351" y="54" xlink:href="#p" />
<use x="351" y="63" xlink:href="#p" />
<use x="351" y="72" xlink:href="#p" />
<use x="351" y="108" xlink:href="#p" />
<use x="351" y="117" xlink:href="#p" />
<use x="351" y="126" xlink:href="#p" />
<use x="351" y="135" xlink:href="#p" />
<use x="351" y="144" xlink:href="#p" />
<use x="351" y="153" xlink:href="#p" />
<use x="351" y="171" xlink:href="#p" />
<use x="351" y="189" xlink:href="#p" />
<use x="351" y="207" xlink:href="#p" />
<use x="351" y="234" xlink:href="#p" />
<use x="351" y="252" xlink:href="#p" />
<use x="351" y="261" xlink:href="#p" />
<use x="351" y="270" xlink:href="#p" />
<use x="351" y="279" xlink:href="#p" />
<use x="351" y="306" xlink:href="#p" />
<use x="351" y="342" xlink:href="#p" />
<use x="351" y="351" xlink:href="#p" />
<use x="351" y="360" xlink:href="#p" />
<use x="351" y="369" xlink:href="#p" />
<use x="351" y="378" xlink:href="#p" />
<use x="351" y="387" xlink:href="#p" />
<use x="351" y="396" xlink:href="#p" />
<use x="351" y="414" xlink:href="#p" />
<use x="351" y="423" xlink:href="#p" />
<use x="360" y="36" xlink:href="#p" />
<use x="360" y="63" xlink:href="#p" />
<use x="360" y="72" xlink:href="#p" />
<use x="360" y="90" xlink:href="#p" />
<use x="360" y="99" xlink:href="#p" />
<use x="360" y="117" xlink:href="#p" />
<use x="360" y="153" xlink:href="#p" />
<use x="360" y="162" xlink:href="#p" />
<use x="360" y="171" xlink:href="#p" />
<use x="360" y="189" xlink:href="#p" />
<use x="360" y="216" xlink:href="#p" />
<use x="360" y="225" xlink:href="#p" />
<use x="360" y="234" xlink:href="#p" />
<use x="360" y="243" xlink:href="#p" />
<use x="360" y="252" xlink:href="#p" />
<use x="360" y="270" xlink:href="#p" />
<use x="360" y="288" xlink:href="#p" />
<use x="360" y="297" xlink:href="#p" />
<use x="360" y="306" xlink:href="#p" />
<use x="360" y="342" xlink:href="#p" />
<use x="360" y="351" xlink:href="#p" />
<use x="360" y="360" xlink:href="#p" />
<use x="360" y="369" xlink:href="#p" />
<use x="360" y="378" xlink:href="#p" />
<use x="360" y="387" xlink:href="#p" />
<use x="360" y="396" xlink:href="#p" />
<use x="360" y="414" xlink:href="#p" />
<use x="360" y="432" xlink:href="#p" />
<use x="369" y="108" xlink:href="#p" />
<use x="369" y="126" xlink:href="#p" />
<use x="369" y="135" xlink:href="#p" />
<use x="369" y="153" xlink:href="#p" />
<use x="369" y="198" xlink:href="#p" />
<use x="369" y="216" xlink:href="#p" />
<use x="369" y="252" xlink:href="#p" />
<use x="369" y="261" xlink:href="#p" />
<use x="369" y="279" xlink:href="#p" />
<use x="369" y="306" xlink:href="#p" />
<use x="369" y="324" xlink:href="#p" />
<use x="369" y="360" xlink:href="#p" />
<use x="369" y="396" xlink:href="#p" />
<use x="369" y="405" xlink:href="#p" />
<use x="369" y="423" xlink:href="#p" />
<use x="369" y="432" xlink:href="#p" />
<use x="378" y="36" xlink:href="#p" />
<use x="378" y="45" xlink:href="#p" />
<use x="378" y="54" xlink:href="#p" />
<use x="378" y="63" xlink:href="#p" />
<use x="378" y="72" xlink:href="#p" />
<use x="378" y="81" xlink:href="#p" />
<use x="378" y="90" xlink:href="#p" />
<use x="378" y="108" xlink:href="#p" />
<use x="378" y="117" xlink:href="#p" />
<use x="378" y="126" xlink:href="#p" />
<use x="378" y="144" xlink:href="#p" />
<use x="378" y="162" xlink:href="#p" />
<use x="378" y="171" xlink:href="#p" />
<use x="378" y="180" xlink:href="#p" />
<use x="378" y="216" xlink:href="#p" />
<use x="378" y="234" xlink:href="#p" />
<use x="378" y="252" xlink:href="#p" />
<use x="378" y="288" xlink:href="#p" />
<use x="378" y="297" xlink:href="#p" />
<use x="378" y="306" xlink:href="#p" />
<use x="378" y="315" xlink:href="#p" />
<use x="378" y="324" xlink:href="#p" />
<use x="378" y="351" xlink:href="#p" />
<use x="378" y="360" xlink:href="#p" />
<use x="378" y="378" xlink:href="#p" />
<use x="378" y="396" xlink:href="#p" />
<use x="378" y="405" xlink:href="#p" />
<use x="378" y="432" xlink:href="#p" />
<use x="387" y="36" xlink:href="#p" />
<use x="387" y="90" xlink:href="#p" />
<use x="387" y="117" xlink:href="#p" />
<use x="387" y="126" xlink:href="#p" />
<use x="387" y="135" xlink:href="#p" />
<use x="387" y="144" xlink:href="#p" />
<use x="387" y="171" xlink:href="#p" />
<use x="387" y="189" xlink:href="#p" />
<use x="387" y="216" xlink:href="#p" />
<use x="387" y="252" xlink:href="#p" />
<use x="387" y="261" xlink:href="#p" />
<use x="387" y="270" xlink:href="#p" />
<use x="387" y="297" xlink:href="#p" />
<use x="387" y="306" xlink:href="#p" />
<use x="387" y="324" xlink:href="#p" />
<use x="387" y="342" xlink:href="#p" />
<use x="387" y="351" xlink:href="#p" />
<use x="387" y="360" xlink:href="#p" />
<use x="387" y="396" xlink:href="#p" />
<use x="396" y="36" xlink:href="#p" />
<use x="396" y="54" xlink:href="#p" />
<use x="396" y="63" xlink:href="#p" />
<use x="396" y="72" xlink:href="#p" />
<use x="396" y="90" xlink:href="#p" />
<use x="396" y="135" xlink:href="#p" />
<use x="396" y="144" xlink:href="#p" />
<use x="396" y="153" xlink:href="#p" />
<use x="396" y="162" xlink:href="#p" />
<use x="396" y="198" xlink:href="#p" />
<use x="396" y="207" xlink:href="#p" />
<use x="396" y="216" xlink:href="#p" />
<use x="396" y="225" xlink:href="#p" />
<use x="396" y="234" xlink:href="#p" />
<use x="396" y="243" xlink:href="#p" />
<use x="396" y="252" xlink:href="#p" />
<use x="396" y="279" xlink:href="#p" />
<use x="396" y="288" xlink:href="#p" />
<use x="396" y="306" xlink:href="#p" />
<use x="396" y="324" xlink:href="#p" />
<use x="396" y="333" xlink:href="#p" />
<use x="396" y="342" xlink:href="#p" />
<use x="396" y="351" xlink:href="#p" />
<use x="396" y="360" xlink:href="#p" />
<use x="396" y="369" xlink:href="#p" />
<use x="396" y="378" xlink:href="#p" />
<use x="396" y="387" xlink:href="#p" />
<use x="396" y="396" xlink:href="#p" />
<use x="396" y="405" xlink:href="#p" />
<use x="396" y="414" xlink:href="#p" />
<use x="405" y="36" xlink:href="#p" />
<use x="405" y="54" xlink:href="#p" />
<use x="405" y="63" xlink:href="#p" />
<use x="405" y="72" xlink:href="#p" />
<use x="405" y="90" xlink:href="#p" />
<use x="405" y="108" xlink:href="#p" />
<use x="405" y="117" xlink:href="#p" />
<use x="405" y="144" xlink:href="#p" />
<use x="405" y="162" xlink:href="#p" />
<use x="405" y="171" xlink:href="#p" />
<use x="405" y="180" xlink:href="#p" />
<use x="405" y="207" xlink:href="#p" />
<use x="405" y="225" xlink:href="#p" />
<use x="405" y="243" xlink:href="#p" />
<use x="405" y="261" xlink:href="#p" />
<use x="405" y="270" xlink:href="#p" />
<use x="405" y="279" xlink:href="#p" />
<use x="405" y="315" xlink:href="#p" />
<use x="405" y="324" xlink:href="#p" />
<use x="405" y="333" xlink:href="#p" />
<use x="405" y="342" xlink:href="#p" />
<use x="405" y="351" xlink:href="#p" />
<use x="405" y="360" xlink:href="#p" />
<use x="405" y="369" xlink:href="#p" />
<use x="405" y="387" xlink:href="#p" />
<use x="405" y="396" xlink:href="#p" />
<use x="405" y="405" xlink:href="#p" />
<use x="405" y="423" xlink:href="#p" />
<use x="405" y="432" xlink:href="#p" />
<use x="414" y="36" xlink:href="#p" />
<use x="414" y="54" xlink:href="#p" />
<use x="414" y="63" xlink:href="#p" />
<use x="414" y="72" xlink:href="#p" />
<use x="414" y="90" xlink:href="#p" />
<use x="414" y="108" xlink:href="#p" />
<use x="414" y="135" xlink:href="#p" />
<use x="414" y="153" xlink:href="#p" />
<use x="414" y="162" xlink:href="#p" />
<use x="414" y="171" xlink:href="#p" />
<use x="414" y="198" xlink:href="#p" />
<use x="414" y="207" xlink:href="#p" />
<use x="414" y="225" xlink:href="#p" />
<use x="414" y="234" xlink:href="#p" />
<use x="414" y="243" xlink:href="#p" />
<use x="414" y="279" xlink:href="#p" />
<use x="414" y="288" xlink:href="#p" />
<use x="414" y="297" xlink:href="#p" />
<use x="414" y="315" xlink:href="#p" />
<use x="414" y="351" xlink:href="#p" />
<use x="414" y="369" xlink:href="#p" />
<use x="414" y="378" xlink:href="#p" />
<use x="414" y="387" xlink:href="#p" />
<use x="414" y="423" xlink:href="#p" />
<use x="423" y="36" xlink:href="#p" />
<use x="423" y="90" xlink:href="#p" />
<use x="423" y="108" xlink:href="#p" />
<use x="423" y="117" xlink:href="#p" />
<use x="423" y="126" xlink:href="#p" />
<use x="423" y="144" xlink:href="#p" />
<use x="423" y="162" xlink:href="#p" />
<use x="423" y="180" xlink:href="#p" />
<use x="423" y="207" xlink:href="#p" />
<use x="423" y="216" xlink:href="#p" />
<use x="423" y="234" xlink:href="#p" />
<use x="423" y="243" xlink:href="#p" />
<use x="423" y="270" xlink:href="#p" />
<use x="423" y="279" xlink:href="#p" />
<use x="423" y="297" xlink:href="#p" />
<use x="423" y="315" xlink:href="#p" />
<use x="423" y="342" xlink:href="#p" />
<use x="423" y="351" xlink:href="#p" />
<use x="423" y="378" xlink:href="#p" />
<use x="423" y="387" xlink:href="#p" />
<use x="423" y="405" xlink:href="#p" />
<use x="423" y="432" xlink:href="#p" />
<use x="432" y="36" xlink:href="#p" />
<use x="432" y="45" xlink:href="#p" />
<use x="432" y="54" xlink:href="#p" />
<use x="432" y="63" xlink:href="#p" />
<use x="432" y="72" xlink:href="#p" />
<use x="432" y="81" xlink:href="#p" />
<use x="432" y="90" xlink:href="#p" />
<use x="432" y="153" xlink:href="#p" />
<use x="432" y="171" xlink:href="#p" />
<use x="432" y="189" xlink:href="#p" />
<use x="432" y="198" xlink:href="#p" />
<use x="432" y="216" xlink:href="#p" />
<use x="432" y="243" xlink:href="#p" />
<use x="432" y="252" xlink:href="#p" />
<use x="432" y="261" xlink:href="#p" />
<use x="432" y="279" xlink:href="#p" />
<use x="432" y="288" xlink:href="#p" />
<use x="432" y="297" xlink:href="#p" />
<use x="432" y="306" xlink:href="#p" />
<use x="432" y="324" xlink:href="#p" />
<use x="432" y="351" xlink:href="#p" />
<use x="432" y="369" xlink:href="#p" />
<use x="432" y="387" xlink:href="#p" />
<use x="432" y="396" xlink:href="#p" />
<use x="432" y="405" xlink:href="#p" />
<use x="432" y="414" xlink:href="#p" />
</g>
</svg>