<?xml version="1.0" encoding="utf-8"?>
<svg version="1.1" baseProfile="full"  width="513" height="513" viewBox="0 0 513 513"
		 xmlns="http://www.w3.org/2000/svg" xmlns:xlink="http://www.w3.org/1999/xlink" xmlns:ev="http://www.w3.org/2001/xml-events">
<desc></desc>
<rect width="513" height="513" fill="#ffffff" cx="0" cy="0" />
<defs>
<rect id="p" width="9" height="9" />
</defs>
<g fill="#000000">
<use x="36" y="36" xlink:href="#p" />
<use x="36" y="45" xlink:href="#p" />
<use x="36" y="54" xlink:href="#p" />
<use x="36" y="63" xlink:href="#p" />
<use x="36" y="72" xlink:href="#p" />
<use x="36" y="81" xlink:href="#p" />
<use x="36" y="90" xlink:href="#p" />
<use x="36" y="108" xlink:href="#p" />
<use x="36" y="117" xlink:href="#p" />
<use x="36" y="126" xlink:href="#p" />
<use x="36" y="135" xlink:href="#p" />
<use x="36" y="144" xlink:href="#p" />
<use x="36" y="153" xlink:href="#p" />
<use x="36" y="162" xlink:href="#p" />
<use x="36" y="171" xlink:href="#p" />
<use x="36" y="180" xlink:href="#p" />
<use x="36" y="225" xlink:href="#p" />
<use x="36" y="252" xlink:href="#p" />
<use x="36" y="279" xlink:href="#p" />
<use x="36" y="288" xlink:href="#p" />
<use x="36" y="297" xlink:href="#p" />
<use x="36" y="324" xlink:href="#p" />
<use x="36" y="333" xlink:href="#p" />
<use x="36" y="342" xlink:href="#p" />
<use x="36" y="351" xlink:href="#p" />
<use x="36" y="360" xlink:href="#p" />
<use x="36" y="369" xlink:href="#p" />
<use x="36" y="396" xlink:href="#p" />
<use x="36" y="414" xlink:href="#p" />
<use x="36" y="423" xlink:href="#p" />
<use x="36" y="432" xlink:href="#p" />
<use x="36" y="441" xlink:href="#p" />
<use x="36" y="450" xlink:href="#p" />
<use x="36" y="459" xlink:href="#p" />
<use x="36" y="468" xlink:href="#p" />
<use x="45" y="36" xlink:href="#p" />
<use x="45" y="90" xlink:href="#p" />
<use x="45" y="135" xlink:href="#p" />
<use x="45" y="144" xlink:href="#p" />
<use x="45" y="153" xlink:href="#p" />
<use x="45" y="162" xlink:href="#p" />
<use x="45" y="180" xlink:href="#p" />
<use x="45" y="198" xlink:href="#p" />
<use x="45" y="216" xlink:href="#p" />
<use x="45" y="234" xlink:href="#p" />
<use x="45" y="270" xlink:href="#p" />
<use x="45" y="279" xlink:href="#p" />
<use x="45" y="297" xlink:href="#p" />
<use x="45" y="315" xlink:href="#p" />
<use x="45" y="369" xlink:href="#p" />
<use x="45" y="378" xlink:href="#p" />
<use x="45" y="387" xlink:href="#p" />
<use x="45" y="396" xlink:href="#p" />
<use x="45" y="414" xlink:href="#p" />
<use x="45" y="468" xlink:href="#p" />
<use x="54" y="36" xlink:href="#p" />
<use x="54" y="54" xlink:href="#p" />
<use x="54" y="63" xlink:href="#p" />
<use x="54" y="72" xlink:href="#p" />
<use x="54" y="90" xlink:href="#p" />
<use x="54" y="108" xlink:href="#p" />
<use x="54" y="135" xlink:href="#p" />
<use x="54" y="162" xlink:href="#p" />
<use x="54" y="171" xlink:href="#p" />
<use x="54" y="180" xlink:href="#p" />
<use x="54" y="189" xlink:href="#p" />
<use x="54" y="198" xlink:href="#p" />
<use x="54" y="243" xlink:href="#p" />
<use x="54" y="252" xlink:href="#p" />
<use x="54" y="288" xlink:href="#p" />
<use x="54" y="297" xlink:href="#p" />
<use x="54" y="306" xlink:href="#p" />
<use x="54" y="387" xlink:href="#p" />
<use x="54" y="396" xlink:href="#p" />
<use x="54" y="414" xlink:href="#p" />
<use x="54" y="432" xlink:href="#p" />
<use x="54" y="441" xlink:href="#p" />
<use x="54" y="450" xlink:href="#p" />
<use x="54" y="468" xlink:href="#p" />
<use x="63" y="36" xlink:href="#p" />
<use x="63" y="54" xlink:href="#p" />
<use x="63" y="63" xlink:href="#p" />
<use x="63" y="72" xlink:href="#p" />
<use x="63" y="90" xlink:href="#p" />
<use x="63" y="108" xlink:href="#p" />
<use x="63" y="117" xlink:href="#p" />
<use x="63" y="144" xlink:href="#p" />
<use x="63" y="153" xlink:href="#p" />
<use x="63" y="162" xlink:href="#p" />
<use x="63" y="180" xlink:href="#p" />
<use x="63" y="189" xlink:href="#p" />
<use x="63" y="243" xlink:href="#p" />
<use x="63" y="270" xlink:href="#p" />
<use x="63" y="279" xlink:href="#p" />
<use x="63" y="288" xlink:href="#p" />
<use x="63" y="369" xlink:href="#p" />
<use x="63" y="387" xlink:href="#p" />
<use x="63" y="414" xlink:href="#p" />
<use x="63" y="432" xlink:href="#p" />
<use x="63" y="441" xlink:href="#p" />
<use x="63" y="450" xlink:href="#p" />
<use x="63" y="468" xlink:href="#p" />
<use x="72" y="36" xlink:href="#p" />
<use x="72" y="54" xlink:href="#p" />
<use x="72" y="63" xlink:href="#p" />
<use x="72" y="72" xlink:href="#p" />
<use x="72" y="90" xlink:href="#p" />
<use x="72" y="117" xlink:href="#p" />
<use x="72" y="126" xlink:href="#p" />
<use x="72" y="162" xlink:href="#p" />
<use x="72" y="171" xlink:href="#p" />
<use x="72" y="189" xlink:href="#p" />
<use x="72" y="207" xlink:href="#p" />
<use x="72" y="216" xlink:href="#p" />
<use x="72" y="225" xlink:href="#p" />
<use x="72" y="234" xlink:href="#p" />
<use x="72" y="243" xlink:href="#p" />
<use x="72" y="252" xlink:href="#p" />
<use x="72" y="261" xlink:href="#p" />
<use x="72" y="270" xlink:href="#p" />
<use x="72" y="306" xlink:href="#p" />
<use x="72" y="333" xlink:href="#p" />
<use x="72" y="351" xlink:href="#p" />
<use x="72" y="360" xlink:href="#p" />
<use x="72" y="414" xlink:href="#p" />
<use x="72" y="432" xlink:href="#p" />
<use x="72" y="441" xlink:href="#p" />
<use x="72" y="450" xlink:href="#p" />
<use x="72" y="468" xlink:href="#p" />
<use x="81" y="36" xlink:href="#p" />
<use x="81" y="90" xlink:href="#p" />
<use x="81" y="108" xlink:href="#p" />
<use x="81" y="126" xlink:href="#p" />
<use x="81" y="180" xlink:href="#p" />
<use x="81" y="198" xlink:href="#p" />
<use x="81" y="207" xlink:href="#p" />
<use x="81" y="216" xlink:href="#p" />
<use x="81" y="234" xlink:href="#p" />
<use x="81" y="270" xlink:href="#p" />
<use x="81" y="288" xlink:href="#p" />
<use x="81" y="306" xlink:href="#p" />
<use x="81" y="315" xlink:href="#p" />
<use x="81" y="324" xlink:href="#p" />
<use x="81" y="333" xlink:href="#p" />
<use x="81" y="342" xlink:href="#p" />
<use x="81" y="351" xlink:href="#p" />
<use x="81" y="360" xlink:href="#p" />
<use x="81" y="378" xlink:href="#p" />
<use x="81" y="414" xlink:href="#p" />
<use x="81" y="468" xlink:href="#p" />
<use x="90" y="36" xlink:href="#p" />
<use x="90" y="45" xlink:href="#p" />
<use x="90" y="54" xlink:href="#p" />
<use x="90" y="63" xlink:href="#p" />
<use x="90" y="72" xlink:href="#p" />
<use x="90" y="81" xlink:href="#p" />
<use x="90" y="90" xlink:href="#p" />
<use x="90" y="108" xlink:href="#p" />
<use x="90" y="126" xlink:href="#p" />
<use x="90" y="144" xlink:href="#p" />
<use x="90" y="162" xlink:href="#p" />
<use x="90" y="180" xlink:href="#p" />
<use x="90" y="198" xlink:href="#p" />
<use x="90" y="216" xlink:href="#p" />
<use x="90" y="234" xlink:href="#p" />
<use x="90" y="252" xlink:href="#p" />
<use x="90" y="270" xlink:href="#p" />
<use x="90" y="288" xlink:href="#p" />
<use x="90" y="306" xlink:href="#p" />
<use x="90" y="324" xlink:href="#p" />
<use x="90" y="342" xlink:href="#p" />
<use x="90" y="360" xlink:href="#p" />
<use x="90" y="378" xlink:href="#p" />
<use x="90" y="396" xlink:href="#p" />
<use x="90" y="414" xlink:href="#p" />
<use x="90" y="423" xlink:href="#p" />
<use x="90" y="432" xlink:href="#p" />
<use x="90" y="441" xlink:href="#p" />
<use x="90" y="450" xlink:href="#p" />
<use x="90" y="459" xlink:href="#p" />
<use x="90" y="468" xlink:href="#p" />
<use x="99" y="108" xlink:href="#p" />
<use x="99" y="117" xlink:href="#p" />
<use x="99" y="126" xlink:href="#p" />
<use x="99" y="135" xlink:href="#p" />
<use x="99" y="144" xlink:href="#p" />
<use x="99" y="162" xlink:href="#p" />
<use x="99" y="171" xlink:href="#p" />
<use x="99" y="180" xlink:href="#p" />
<use x="99" y="189" xlink:href="#p" />
<use x="99" y="207" xlink:href="#p" />
<use x="99" y="216" xlink:href="#p" />
<use x="99" y="225" xlink:href="#p" />
<use x="99" y="234" xlink:href="#p" />
<use x="99" y="270" xlink:href="#p" />
<use x="99" y="279" xlink:href="#p" />
<use x="99" y="297" xlink:href="#p" />
<use x="99" y="342" xlink:href="#p" />
<use x="99" y="351" xlink:href="#p" />
<use x="99" y="360" xlink:href="#p" />
<use x="99" y="387" xlink:href="#p" />
<use x="108" y="36" xlink:href="#p" />
<use x="108" y="45" xlink:href="#p" />
<use x="108" y="63" xlink:href="#p" />
<use x="108" y="90" xlink:href="#p" />
<use x="108" y="99" xlink:href="#p" />
<use x="108" y="117" xlink:href="#p" />
<use x="108" y="126" xlink:href="#p" />
<use x="108" y="189" xlink:href="#p" />
<use x="108" y="198" xlink:href="#p" />
<use x="108" y="207" xlink:href="#p" />
<use x="108" y="216" xlink:href="#p" />
<use x="108" y="225" xlink:href="#p" />
<use x="108" y="234" xlink:href="#p" />
<use x="108" y="243" xlink:href="#p" />
<use x="108" y="252" xlink:href="#p" />
<use x="108" y="261" xlink:href="#p" />
<use x="108" y="270" xlink:href="#p" />
<use x="108" y="279" xlink:href="#p" />
<use x="108" y="306" xlink:href="#p" />
<use x="108" y="324" xlink:href="#p" />
<use x="108" y="342" xlink:href="#p" />
<use x="108" y="351" xlink:href="#p" />
<use x="108" y="360" xlink:href="#p" />
<use x="108" y="378" xlink:href="#p" />
<use x="108" y="387" xlink:href="#p" />
<use x="108" y="405" xlink:href="#p" />
<use x="108" y="414" xlink:href="#p" />
<use x="108" y="423" xlink:href="#p" />
<use x="108" y="441" xlink:href="#p" />
<use x="108" y="450" xlink:href="#p" />
<use x="108" y="468" xlink:href="#p" />
<use x="117" y="72" xlink:href="#p" />
<use x="117" y="81" xlink:href="#p" />
<use x="117" y="99" xlink:href="#p" />
<use x="117" y="126" xlink:href="#p" />
<use x="117" y="135" xlink:href="#p" />
<use x="117" y="153" xlink:href="#p" />
<use x="117" y="162" xlink:href="#p" />
<use x="117" y="198" xlink:href="#p" />
<use x="117" y="207" xlink:href="#p" />
<use x="117" y="225" xlink:href="#p" />
<use x="117" y="243" xlink:href="#p" />
<use x="117" y="252" xlink:href="#p" />
<use x="117" y="261" xlink:href="#p" />
<use x="117" y="279" xlink:href="#p" />
<use x="117" y="288" xlink:href="#p" />
<use x="117" y="297" xlink:href="#p" />
<use x="117" y="315" xlink:href="#p" />
<use x="117" y="342" xlink:href="#p" />
<use x="117" y="351" xlink:href="#p" />
<use x="117" y="369" xlink:href="#p" />
<use x="117" y="387" xlink:href="#p" />
<use x="117" y="396" xlink:href="#p" />
<use x="117" y="432" xlink:href="#p" />
<use x="117" y="450" xlink:href="#p" />
<use x="117" y="459" xlink:href="#p" />
<use x="126" y="63" xlink:href="#p" />
<use x="126" y="72" xlink:href="#p" />
<use x="126" y="81" xlink:href="#p" />
<use x="126" y="90" xlink:href="#p" />
<use x="126" y="108" xlink:href="#p" />
<use x="126" y="117" xlink:href="#p" />
<use x="126" y="126" xlink:href="#p" />
<use x="126" y="144" xlink:href="#p" />
<use x="126" y="171" xlink:href="#p" />
<use x="126" y="180" xlink:href="#p" />
<use x="126" y="216" xlink:href="#p" />
<use x="126" y="225" xlink:href="#p" />
<use x="126" y="234" xlink:href="#p" />
<use x="126" y="270" xlink:href="#p" />
<use x="126" y="279" xlink:href="#p" />
<use x="126" y="306" xlink:href="#p" />
<use x="126" y="333" xlink:href="#p" />
<use x="126" y="369" xlink:href="#p" />
<use x="126" y="387" xlink:href="#p" />
<use x="126" y="432" xlink:href="#p" />
<use x="126" y="459" xlink:href="#p" />
<use x="135" y="72" xlink:href="#p" />
<use x="135" y="81" xlink:href="#p" />
<use x="135" y="153" xlink:href="#p" />
<use x="135" y="162" xlink:href="#p" />
<use x="135" y="171" xlink:href="#p" />
<use x="135" y="189" xlink:href="#p" />
<use x="135" y="207" xlink:href="#p" />
<use x="135" y="216" xlink:href="#p" />
<use x="135" y="225" xlink:href="#p" />
<use x="135" y="234" xlink:href="#p" />
<use x="135" y="243" xlink:href="#p" />
<use x="135" y="342" xlink:href="#p" />
<use x="135" y="360" xlink:href="#p" />
<use x="135" y="369" xlink:href="#p" />
<use x="135" y="396" xlink:href="#p" />
<use x="135" y="423" xlink:href="#p" />
<use x="135" y="468" xlink:href="#p" />
<use x="144" y="36" xlink:href="#p" />
<use x="144" y="63" xlink:href="#p" />
<use x="144" y="72" xlink:href="#p" />
<use x="144" y="81" xlink:href="#p" />
<use x="144" y="90" xlink:href="#p" />
<use x="144" y="99" xlink:href="#p" />
<use x="144" y="108" xlink:href="#p" />
<use x="144" y="171" xlink:href="#p" />
<use x="144" y="180" xlink:href="#p" />
<use x="144" y="198" xlink:href="#p" />
<use x="144" y="216" xlink:href="#p" />
<use x="144" y="225" xlink:href="#p" />
<use x="144" y="261" xlink:href="#p" />
<use x="144" y="297" xlink:href="#p" />
<use x="144" y="324" xlink:href="#p" />
<use x="144" y="333" xlink:href="#p" />
<use x="144" y="360" xlink:href="#p" />
<use x="144" y="369" xlink:href="#p" />
<use x="144" y="378" xlink:href="#p" />
<use x="144" y="396" xlink:href="#p" />
<use x="144" y="423" xlink:href="#p" />
<use x="144" y="432" xlink:href="#p" />
<use x="144" y="441" xlink:href="#p" />
<use x="144" y="450" xlink:href="#p" />
<use x="144" y="459" xlink:href="#p" />
<use x="144" y="468" xlink:href="#p" />
<use x="153" y="36" xlink:href="#p" />
<use x="153" y="54" xlink:href="#p" />
<use x="153" y="72" xlink:href="#p" />
<use x="153" y="81" xlink:href="#p" />
<use x="153" y="108" xlink:href="#p" />
<use x="153" y="126" xlink:href="#p" />
<use x="153" y="144" xlink:href="#p" />
<use x="153" y="189" xlink:href="#p" />
<use x="153" y="198" xlink:href="#p" />
<use x="153" y="207" xlink:href="#p" />
<use x="153" y="225" xlink:href="#p" />
<use x="153" y="279" xlink:href="#p" />
<use x="153" y="288" xlink:href="#p" />
<use x="153" y="306" xlink:href="#p" />
<use x="153" y="315" xlink:href="#p" />
<use x="153" y="333" xlink:href="#p" />
<use x="153" y="369" xlink:href="#p" />
<use x="153" y="387" xlink:href="#p" />
<use x="153" y="405" xlink:href="#p" />
<use x="153" y="423" xlink:href="#p" />
<use x="153" y="432" xlink:href="#p" />
<use x="153" y="459" xlink:href="#p" />
<use x="153" y="468" xlink:href="#p" />
<use x="162" y="45" xlink:href="#p" />
<use x="162" y="54" xlink:href="#p" />
<use x="162" y="63" xlink:href="#p" />
<use x="162" y="72" xlink:href="#p" />
<use x="162" y="81" xlink:href="#p" />
<use x="162" y="90" xlink:href="#p" />
<use x="162" y="99" xlink:href="#p" />
<use x="162" y="108" xlink:href="#p" />
<use x="162" y="117" xlink:href="#p" />
<use x="162" y="135" xlink:href="#p" />
<use x="162" y="153" xlink:href="#p" />
<use x="162" y="162" xlink:href="#p" />
<use x="162" y="180" xlink:href="#p" />
<use x="162" y="198" xlink:href="#p" />
<use x="162" y="225" xlink:href="#p" />
<use x="162" y="234" xlink:href="#p" />
<use x="162" y="252" xlink:href="#p" />
<use x="162" y="270" xlink:href="#p" />
<use x="162" y="297" xlink:href="#p" />
<use x="162" y="306" xlink:href="#p" />
<use x="162" y="315" xlink:href="#p" />
<use x="162" y="324" xlink:href="#p" />
<use x="162" y="333" xlink:href="#p" />
<use x="162" y="351" xlink:href="#p" />
<use x="162" y="360" xlink:href="#p" />
<use x="162" y="378" xlink:href="#p" />
<use x="162" y="387" xlink:href="#p" />
<use x="162" y="432" xlink:href="#p" />
<use x="162" y="450" xlink:href="#p" />
<use x="162" y="459" xlink:href="#p" />
<use x="162" y="468" xlink:href="#p" />
<use x="171" y="54" xlink:href="#p" />
<use x="171" y="63" xlink:href="#p" />
<use x="171" y="72" xlink:href="#p" />
<use x="171" y="99" xlink:href="#p" />
<use x="171" y="108" xlink:href="#p" />
<use x="171" y="117" xlink:href="#p" />
<use x="171" y="126" xlink:href="#p" />
<use x="171" y="135" xlink:href="#p" />
<use x="171" y="144" xlink:href="#p" />
<use x="171" y="198" xlink:href="#p" />
<use x="171" y="216" xlink:href="#p" />
<use x="171" y="252" xlink:href="#p" />
<use x="171" y="270" xlink:href="#p" />
<use x="171" y="288" xlink:href="#p" />
<use x="171" y="306" xlink:href="#p" />
<use x="171" y="315" xlink:href="#p" />
<use x="171" y="333" xlink:href="#p" />
<use x="171" y="342" xlink:href="#p" />
<use x="171" y="360" xlink:href="#p" />
<use x="171" y="369" xlink:href="#p" />
<use x="171" y="387" xlink:href="#p" />
<use x="171" y="405" xlink:href="#p" />
<use x="171" y="414" xlink:href="#p" />
<use x="171" y="450" xlink:href="#p" />
<use x="171" y="468" xlink:href="#p" />
<use x="180" y="54" xlink:href="#p" />
<use x="180" y="63" xlink:href="#p" />
<use x="180" y="72" xlink:href="#p" />
<use x="180" y="90" xlink:href="#p" />
<use x="180" y="108" xlink:href="#p" />
<use x="180" y="117" xlink:href="#p" />
<use x="180" y="135" xlink:href="#p" />
<use x="180" y="144" xlink:href="#p" />
<use x="180" y="162" xlink:href="#p" />
<use x="180" y="207" xlink:href="#p" />
<use x="180" y="216" xlink:href="#p" />
<use x="180" y="225" xlink:href="#p" />
<use x="180" y="243" xlink:href="#p" />
<use x="180" y="252" xlink:href="#p" />
<use x="180" y="261" xlink:href="#p" />
<use x="180" y="288" xlink:href="#p" />
<use x="180" y="324" xlink:href="#p" />
<use x="180" y="369" xlink:href="#p" />
<use x="180" y="378" xlink:href="#p" />
<use x="180" y="387" xlink:href="#p" />
<use x="180" y="396" xlink:href="#p" />
<use x="180" y="423" xlink:href="#p" />
<use x="180" y="432" xlink:href="#p" />
<use x="180" y="459" xlink:href="#p" />
<use x="189" y="45" xlink:href="#p" />
<use x="189" y="63" xlink:href="#p" />
<use x="189" y="72" xlink:href="#p" />
<use x="189" y="99" xlink:href="#p" />
<use x="189" y="162" xlink:href="#p" />
<use x="189" y="180" xlink:href="#p" />
<use x="189" y="189" xlink:href="#p" />
<use x="189" y="198" xlink:href="#p" />
<use x="189" y="225" xlink:href="#p" />
<use x="189" y="234" xlink:href="#p" />
<use x="189" y="261" xlink:href="#p" />
<use x="189" y="270" xlink:href="#p" />
<use x="189" y="279" xlink:href="#p" />
<use x="189" y="315" xlink:href="#p" />
<use x="189" y="342" xlink:href="#p" />
<use x="189" y="351" xlink:href="#p" />
<use x="189" y="360" xlink:href="#p" />
<use x="189" y="378" xlink:href="#p" />
<use x="189" y="396" xlink:href="#p" />
<use x="189" y="405" xlink:href="#p" />
<use x="189" y="414" xlink:href="#p" />
<use x="189" y="423" xlink:href="#p" />
<use x="189" y="432" xlink:href="#p" />
<use x="198" y="36" xlink:href="#p" />
<use x="198" y="45" xlink:href="#p" />
<use x="198" y="54" xlink:href="#p" />
<use x="198" y="81" xlink:href="#p" />
<use x="198" y="90" xlink:href="#p" />
<use x="198" y="99" xlink:href="#p" />
<use x="198" y="126" xlink:href="#p" />
<use x="198" y="135" xlink:href="#p" />
<use x="198" y="162" xlink:href="#p" />
<use x="198" y="180" xlink:href="#p" />
<use x="198" y="207" xlink:href="#p" />
<use x="198" y="216" xlink:href="#p" />
<use x="198" y="225" xlink:href="#p" />
<use x="198" y="234" xlink:href="#p" />
<use x="198" y="252" xlink:href="#p" />
<use x="198" y="261" xlink:href="#p" />
<use x="198" y="306" xlink:href="#p" />
<use x="198" y="315" xlink:href="#p" />
<use x="198" y="333" xlink:href="#p" />
<use x="198" y="351" xlink:href="#p" />
<use x="198" y="360" xlink:href="#p" />
<use x="198" y="369" xlink:href="#p" />
<use x="198" y="378" xlink:href="#p" />
<use x="198" y="405" xlink:href="#p" />
<use x="198" y="414" xlink:href="#p" />
<use x="198" y="423" xlink:href="#p" />
<use x="198" y="432" xlink:href="#p" />
<use x="198" y="441" xlink:href="#p" />
<use x="207" y="63" xlink:href="#p" />
<use x="207" y="108" xlink:href="#p" />
<use x="207" y="117" xlink:href="#p" />
<use x="207" y="153" xlink:href="#p" />
<use x="207" y="162" xlink:href="#p" />
<use x="207" y="171" xlink:href="#p" />
<use x="207" y="198" xlink:href="#p" />
<use x="207" y="225" xlink:href="#p" />
<use x="207" y="243" xlink:href="#p" />
<use x="207" y="261" xlink:href="#p" />
<use x="207" y="279" xlink:href="#p" />
<use x="207" y="288" xlink:href="#p" />
<use x="207" y="297" xlink:href="#p" />
<use x="207" y="306" xlink:href="#p" />
<use x="207" y="324" xlink:href="#p" />
<use x="207" y="333" xlink:href="#p" />
<use x="207" y="342" xlink:href="#p" />
<use x="207" y="351" xlink:href="#p" />
<use x="207" y="360" xlink:href="#p" />
<use x="207" y="369" xlink:href="#p" />
<use x="207" y="387" xlink:href="#p" />
<use x="207" y="432" xlink:href="#p" />
<use x="207" y="441" xlink:href="#p" />
<use x="207" y="468" xlink:href="#p" />
<use x="216" y="45" xlink:href="#p" />
<use x="216" y="72" xlink:href="#p" />
<use x="216" y="90" xlink:href="#p" />
<use x="216" y="99" xlink:href="#p" />
<use x="216" y="126" xlink:href="#p" />
<use x="216" y="135" xlink:href="#p" />
<use x="216" y="162" xlink:href="#p" />
<use x="216" y="171" xlink:href="#p" />
<use x="216" y="207" xlink:href="#p" />
<use x="216" y="216" xlink:href="#p" />
<use x="216" y="252" xlink:href="#p" />
<use x="216" y="261" xlink:href="#p" />
<use x="216" y="288" xlink:href="#p" />
<use x="216" y="315" xlink:href="#p" />
<use x="216" y="324" xlink:href="#p" />
<use x="216" y="360" xlink:href="#p" />
<use x="216" y="369" xlink:href="#p" />
<use x="216" y="423" xlink:href="#p" />
<use x="216" y="441" xlink:href="#p" />
<use x="216" y="459" xlink:href="#p" />
<use x="216" y="468" xlink:href="#p" />
<use x="225" y="36" xlink:href="#p" />
<use x="225" y="54" xlink:href="#p" />
<use x="225" y="81" xlink:href="#p" />
<use x="225" y="99" xlink:href="#p" />
<use x="225" y="108" xlink:href="#p" />
<use x="225" y="135" xlink:href="#p" />
<use x="225" y="144" xlink:href="#p" />
<use x="225" y="153" xlink:href="#p" />
<use x="225" y="189" xlink:href="#p" />
<use x="225" y="207" xlink:href="#p" />
<use x="225" y="225" xlink:href="#p" />
<use x="225" y="234" xlink:href="#p" />
<use x="225" y="243" xlink:href="#p" />
<use x="225" y="252" xlink:href="#p" />
<use x="225" y="261" xlink:href="#p" />
<use x="225" y="270" xlink:href="#p" />
<use x="225" y="279" xlink:href="#p" />
<use x="225" y="333" xlink:href="#p" />
<use x="225" y="351" xlink:href="#p" />
<use x="225" y="378" xlink:href="#p" />
<use x="225" y="387" xlink:href="#p" />
<use x="225" y="396" xlink:href="#p" />
<use x="225" y="414" xlink:href="#p" />
<use x="225" y="432" xlink:href="#p" />
<use x="225" y="441" xlink:href="#p" />
<use x="234" y="45" xlink:href="#p" />
<use x="234" y="63" xlink:href="#p" />
<use x="234" y="72" xlink:href="#p" />
<use x="234" y="81" xlink:href="#p" />
<use x="234" y="90" xlink:href="#p" />
<use x="234" y="99" xlink:href="#p" />
<use x="234" y="108" xlink:href="#p" />
<use x="234" y="126" xlink:href="#p" />
<use x="234" y="135" xlink:href="#p" />
<use x="234" y="144" xlink:href="#p" />
<use x="234" y="153" xlink:href="#p" />
<use x="234" y="171" xlink:href="#p" />
<use x="234" y="198" xlink:href="#p" />
<use x="234" y="216" xlink:href="#p" />
<use x="234" y="234" xlink:href="#p" />
<use x="234" y="243" xlink:href="#p" />
<use x="234" y="252" xlink:href="#p" />
<use x="234" y="261" xlink:href="#p" />
<use x="234" y="270" xlink:href="#p" />
<use x="234" y="279" xlink:href="#p" />
<use x="234" y="288" xlink:href="#p" />
<use x="234" y="306" xlink:href="#p" />
<use x="234" y="315" xlink:href="#p" />
<use x="234" y="324" xlink:href="#p" />
<use x="234" y="333" xlink:href="#p" />
<use x="234" y="360" xlink:href="#p" />
<use x="234" y="369" xlink:href="#p" />
<use x="234" y="387" xlink:href="#p" />
<use x="234" y="396" xlink:href="#p" />
<use x="234" y="405" xlink:href="#p" />
<use x="234" y="414" xlink:href="#p" />
<use x="234" y="423" xlink:href="#p" />
<use x="234" y="432" xlink:href="#p" />
<use x="234" y="441" xlink:href="#p" />
<use x="243" y="54" xlink:href="#p" />
<use x="243" y="72" xlink:href="#p" />
<use x="243" y="108" xlink:href="#p" />
<use x="243" y="117" xlink:href="#p" />
<use x="243" y="126" xlink:href="#p" />
<use x="243" y="135" xlink:href="#p" />
<use x="243" y="144" xlink:href="#p" />
<use x="243" y="207" xlink:href="#p" />
<use x="243" y="216" xlink:href="#p" />
<use x="243" y="225" xlink:href="#p" />
<use x="243" y="234" xlink:href="#p" />
<use x="243" y="270" xlink:href="#p" />
<use x="243" y="279" xlink:href="#p" />
<use x="243" y="288" xlink:href="#p" />
<use x="243" y="297" xlink:href="#p" />
<use x="243" y="333" xlink:href="#p" />
<use x="243" y="342" xlink:href="#p" />
<use x="243" y="351" xlink:href="#p" />
<use x="243" y="360" xlink:href="#p" />
<use x="243" y="378" xlink:href="#p" />
<use x="243" y="387" xlink:href="#p" />
<use x="243" y="396" xlink:href="#p" />
<use x="243" y="432" xlink:href="#p" />
<use x="243" y="459" xlink:href="#p" />
<use x="252" y="45" xlink:href="#p" />
<use x="252" y="63" xlink:href="#p" />
<use x="252" y="72" xlink:href="#p" />
<use x="252" y="90" xlink:href="#p" />
<use x="252" y="108" xlink:href="#p" />
<use x="252" y="117" xlink:href="#p" />
<use x="252" y="135" xlink:href="#p" />
<use x="252" y="144" xlink:href="#p" />
<use x="252" y="162" xlink:href="#p" />
<use x="252" y="198" xlink:href="#p" />
<use x="252" y="207" xlink:href="#p" />
<use x="252" y="234" xlink:href="#p" />
<use x="252" y="252" xlink:href="#p" />
<use x="252" y="270" xlink:href="#p" />
<use x="252" y="279" xlink:href="#p" />
<use x="252" y="297" xlink:href="#p" />
<use x="252" y="315" xlink:href="#p" />
<use x="252" y="324" xlink:href="#p" />
<use x="252" y="333" xlink:href="#p" />
<use x="252" y="342" xlink:href="#p" />
<use x="252" y="351" xlink:href="#p" />
<use x="252" y="378" xlink:href="#p" />
<use x="252" y="396" xlink:href="#p" />
<use x="252" y="414" xlink:href="#p" />
<use x="252" y="432" xlink:href="#p" />
<use x="261" y="45" xlink:href="#p" />
<use x="261" y="63" xlink:href="#p" />
<use x="261" y="72" xlink:href="#p" />
<use x="261" y="108" xlink:href="#p" />
<use x="261" y="117" xlink:href="#p" />
<use x="261" y="126" xlink:href="#p" />
<use x="261" y="144" xlink:href="#p" />
<use x="261" y="153" xlink:href="#p" />
<use x="261" y="171" xlink:href="#p" />
<use x="261" y="180" xlink:href="#p" />
<use x="261" y="198" xlink:href="#p" />
<use x="261" y="207" xlink:href="#p" />
<use x="261" y="216" xlink:href="#p" />
<use x="261" y="225" xlink:href="#p" />
<use x="261" y="234" xlink:href="#p" />
<use x="261" y="270" xlink:href="#p" />
<use x="261" y="306" xlink:href="#p" />
<use x="261" y="324" xlink:href="#p" />
<use x="261" y="351" xlink:href="#p" />
<use x="261" y="360" xlink:href="#p" />
<use x="261" y="369" xlink:href="#p" />
<use x="261" y="396" xlink:href="#p" />
<use x="261" y="432" xlink:href="#p" />
<use x="261" y="450" xlink:href="#p" />
<use x="261" y="459" xlink:href="#p" />
<use x="261" y="468" xlink:href="#p" />
<use x="270" y="45" xlink:href="#p" />
<use x="270" y="72" xlink:href="#p" />
<use x="270" y="81" xlink:href="#p" />
<use x="270" y="90" xlink:href="#p" />
<use x="270" y="99" xlink:href="#p" />
<use x="270" y="108" xlink:href="#p" />
<use x="270" y="153" xlink:href="#p" />
<use x="270" y="162" xlink:href="#p" />
<use x="270" y="180" xlink:href="#p" />
<use x="270" y="216" xlink:href="#p" />
<use x="270" y="225" xlink:href="#p" />
<use x="270" y="234" xlink:href="#p" />
<use x="270" y="243" xlink:href="#p" />
<use x="270" y="252" xlink:href="#p" />
<use x="270" y="261" xlink:href="#p" />
<use x="270" y="270" xlink:href="#p" />
<use x="270" y="288" xlink:href="#p" />
<use x="270" y="297" xlink:href="#p" />
<use x="270" y="333" xlink:href="#p" />
<use x="270" y="342" xlink:href="#p" />
<use x="270" y="351" xlink:href="#p" />
<use x="270" y="369" xlink:href="#p" />
<use x="270" y="387" xlink:href="#p" />
<use x="270" y="396" xlink:href="#p" />
<use x="270" y="405" xlink:href="#p" />
<use x="270" y="414" xlink:href="#p" />
<use x="270" y="423" xlink:href="#p" />
<use x="270" y="432" xlink:href="#p" />
<use x="270" y="450" xlink:href="#p" />
<use x="279" y="72" xlink:href="#p" />
<use x="279" y="81" xlink:href="#p" />
<use x="279" y="108" xlink:href="#p" />
<use x="279" y="117" xlink:href="#p" />
<use x="279" y="126" xlink:href="#p" />
<use x="279" y="162" xlink:href="#p" />
<use x="279" y="171" xlink:href="#p" />
<use x="279" y="180" xlink:href="#p" />
<use x="279" y="216" xlink:href="#p" />
<use x="279" y="225" xlink:href="#p" />
<use x="279" y="243" xlink:href="#p" />
<use x="279" y="261" xlink:href="#p" />
<use x="279" y="279" xlink:href="#p" />
<use x="279" y="288" xlink:href="#p" />
<use x="279" y="306" xlink:href="#p" />
<use x="279" y="315" xlink:href="#p" />
<use x="279" y="351" xlink:href="#p" />
<use x="279" y="378" xlink:href="#p" />
<use x="279" y="396" xlink:href="#p" />
<use x="279" y="405" xlink:href="#p" />
<use x="279" y="414" xlink:href="#p" />
<use x="279" y="423" xlink:href="#p" />
<use x="279" y="432" xlink:href="#p" />
<use x="279" y="441" xlink:href="#p" />
<use x="288" y="81" xlink:href="#p" />
<use x="288" y="90" xlink:href="#p" />
<use x="288" y="99" xlink:href="#p" />
<use x="288" y="108" xlink:href="#p" />
<use x="288" y="162" xlink:href="#p" />
<use x="288" y="180" xlink:href="#p" />
<use x="288" y="198" xlink:href="#p" />
<use x="288" y="207" xlink:href="#p" />
<use x="288" y="216" xlink:href="#p" />
<use x="288" y="225" xlink:href="#p" />
<use x="288" y="261" xlink:href="#p" />
<use x="288" y="270" xlink:href="#p" />
<use x="288" y="279" xlink:href="#p" />
<use x="288" y="297" xlink:href="#p" />
<use x="288" y="324" xlink:href="#p" />
<use x="288" y="369" xlink:href="#p" />
<use x="288" y="378" xlink:href="#p" />
<use x="288" y="387" xlink:href="#p" />
<use x="288" y="405" xlink:href="#p" />
<use x="288" y="423" xlink:href="#p" />
<use x="288" y="432" xlink:href="#p" />
<use x="288" y="441" xlink:href="#p" />
<use x="288" y="459" xlink:href="#p" />
<use x="288" y="468" xlink:href="#p" />
<use x="297" y="54" xlink:href="#p" />
<use x="297" y="63" xlink:href="#p" />
<use x="297" y="99" xlink:href="#p" />
<use x="297" y="126" xlink:href="#p" />
<use x="297" y="144" xlink:href="#p" />
<use x="297" y="153" xlink:href="#p" />
<use x="297" y="162" xlink:href="#p" />
<use x="297" y="171" xlink:href="#p" />
<use x="297" y="180" xlink:href="#p" />
<use x="297" y="189" xlink:href="#p" />
<use x="297" y="225" xlink:href="#p" />
<use x="297" y="243" xlink:href="#p" />
<use x="297" y="252" xlink:href="#p" />
<use x="297" y="279" xlink:href="#p" />
<use x="297" y="315" xlink:href="#p" />
<use x="297" y="324" xlink:href="#p" />
<use x="297" y="369" xlink:href="#p" />
<use x="297" y="378" xlink:href="#p" />
<use x="297" y="387" xlink:href="#p" />
<use x="297" y="405" xlink:href="#p" />
<use x="297" y="441" xlink:href="#p" />
<use x="297" y="450" xlink:href="#p" />
<use x="297" y="459" xlink:href="#p" />
<use x="306" y="36" xlink:href="#p" />
<use x="306" y="63" xlink:href="#p" />
<use x="306" y="81" xlink:href="#p" />
<use x="306" y="90" xlink:href="#p" />
<use x="306" y="108" xlink:href="#p" />
<use x="306" y="117" xlink:href="#p" />
<use x="306" y="126" xlink:href="#p" />
<use x="306" y="144" xlink:href="#p" />
<use x="306" y="162" xlink:href="#p" />
<use x="306" y="180" xlink:href="#p" />
<use x="306" y="189" xlink:href="#p" />
<use x="306" y="198" xlink:href="#p" />
<use x="306" y="207" xlink:href="#p" />
<use x="306" y="216" xlink:href="#p" />
<use x="306" y="225" xlink:href="#p" />
<use x="306" y="234" xlink:href="#p" />
<use x="306" y="243" xlink:href="#p" />
<use x="306" y="270" xlink:href="#p" />
<use x="306" y="279" xlink:href="#p" />
<use x="306" y="288" xlink:href="#p" />
<use x="306" y="333" xlink:href="#p" />
<use x="306" y="360" xlink:href="#p" />
<use x="306" y="378" xlink:href="#p" />
<use x="306" y="423" xlink:href="#p" />
<use x="306" y="432" xlink:href="#p" />
<use x="306" y="441" xlink:href="#p" />
<use x="306" y="459" xlink:href="#p" />
<use x="315" y="36" xlink:href="#p" />
<use x="315" y="117" xlink:href="#p" />
<use x="315" y="126" xlink:href="#p" />
<use x="315" y="135" xlink:href="#p" />
<use x="315" y="144" xlink:href="#p" />
<use x="315" y="162" xlink:href="#p" />
<use x="315" y="180" xlink:href="#p" />
<use x="315" y="189" xlink:href="#p" />
<use x="315" y="198" xlink:href="#p" />
<use x="315" y="216" xlink:href="#p" />
<use x="315" y="234" xlink:href="#p" />
<use x="315" y="243" xlink:href="#p" />
<use x="315" y="252" xlink:href="#p" />
<use x="315" y="279" xlink:href="#p" />
<use x="315" y="288" xlink:href="#p" />
<use x="315" y="306" xlink:href="#p" />
<use x="315" y="315" xlink:href="#p" />
<use x="315" y="324" xlink:href="#p" />
<use x="315" y="333" xlink:href="#p" />
<use x="315" y="351" xlink:href="#p" />
<use x="315" y="360" xlink:href="#p" />
<use x="315" y="369" xlink:href="#p" />
<use x="315" y="396" xlink:href="#p" />
<use x="315" y="405" xlink:href="#p" />
<use x="315" y="441" xlink:href="#p" />
<use x="315" y="450" xlink:href="#p" />
<use x="315" y="459" xlink:href="#p" />
<use x="315" y="468" xlink:href="#p" />
<use x="324" y="45" xlink:href="#p" />
<use x="324" y="54" xlink:href="#p" />
<use x="324" y="81" xlink:href="#p" />
<use x="324" y="90" xlink:href="#p" />
<use x="324" y="117" xlink:href="#p" />
<use x="324" y="135" xlink:href="#p" />
<use x="324" y="153" xlink:href="#p" />
<use x="324" y="189" xlink:href="#p" />
<use x="324" y="198" xlink:href="#p" />
<use x="324" y="225" xlink:href="#p" />
<use x="324" y="243" xlink:href="#p" />
<use x="324" y="261" xlink:href="#p" />
<use x="324" y="270" xlink:href="#p" />
<use x="324" y="279" xlink:href="#p" />
<use x="324" y="288" xlink:href="#p" />
<use x="324" y="297" xlink:href="#p" />
<use x="324" y="306" xlink:href="#p" />
<use x="324" y="315" xlink:href="#p" />
<use x="324" y="342" xlink:href="#p" />
<use x="324" y="351" xlink:href="#p" />
<use x="324" y="378" xlink:href="#p" />
<use x="324" y="387" xlink:href="#p" />
<use x="324" y="396" xlink:href="#p" />
<use x="324" y="405" xlink:href="#p" />
<use x="324" y="441" xlink:href="#p" />
<use x="324" y="468" xlink:href="#p" />
<use x="333" y="45" xlink:href="#p" />
<use x="333" y="72" xlink:href="#p" />
<use x="333" y="99" xlink:href="#p" />
<use x="333" y="108" xlink:href="#p" />
<use x="333" y="153" xlink:href="#p" />
<use x="333" y="162" xlink:href="#p" />
<use x="333" y="189" xlink:href="#p" />
<use x="333" y="198" xlink:href="#p" />
<use x="333" y="207" xlink:href="#p" />
<use x="333" y="216" xlink:href="#p" />
<use x="333" y="243" xlink:href="#p" />
<use x="333" y="252" xlink:href="#p" />
<use x="333" y="297" xlink:href="#p" />
<use x="333" y="306" xlink:href="#p" />
<use x="333" y="315" xlink:href="#p" />
<use x="333" y="324" xlink:href="#p" />
<use x="333" y="333" xlink:href="#p" />
<use x="333" y="351" xlink:href="#p" />
<use x="333" y="396" xlink:href="#p" />
<use x="333" y="405" xlink:href="#p" />
<use x="333" y="414" xlink:href="#p" />
<use x="333" y="432" xlink:href="#p" />
<use x="333" y="459" xlink:href="#p" />
<use x="333" y="468" xlink:href="#p" />
<use x="342" y="45" xlink:href="#p" />
<use x="342" y="54" xlink:href="#p" />
<use x="342" y="63" xlink:href="#p" />
<use x="342" y="90" xlink:href="#p" />
<use x="342" y="99" xlink:href="#p" />
<use x="342" y="126" xlink:href="#p" />
<use x="342" y="180" xlink:href="#p" />
<use x="342" y="189" xlink:href="#p" />
<use x="342" y="198" xlink:href="#p" />
<use x="342" y="207" xlink:href="#p" />
<use x="342" y="234" xlink:href="#p" />
<use x="342" y="252" xlink:href="#p" />
<use x="342" y="297" xlink:href="#p" />
<use x="342" y="306" xlink:href="#p" />
<use x="342" y="387" xlink:href="#p" />
<use x="342" y="396" xlink:href="#p" />
<use x="342" y="405" xlink:href="#p" />
<use x="342" y="414" xlink:href="#p" />
<use x="342" y="423" xlink:href="#p" />
<use x="342" y="432" xlink:href="#p" />
<use x="342" y="450" xlink:href="#p" />
<use x="342" y="468" xlink:href="#p" />
<use x="351" y="36" xlink:href="#p" />
<use x="351" y="45" xlink:href="#p" />
<use x="351" y="63" xlink:href="#p" />
<use x="351" y="72" xlink:href="#p" />
<use x="351" y="99" xlink:href="#p" />
<use x="351" y="108" xlink:href="#p" />
<use x="351" y="117" xlink:href="#p" />
<use x="351" y="126" xlink:href="#p" />
<use x="351" y="144" xlink:href="#p" />
<use x="351" y="153" xlink:href="#p" />
<use x="351" y="162" xlink:href="#p" />
<use x="351" y="171" xlink:href="#p" />
<use x="351" y="198" xlink:href="#p" />
<use x="351" y="207" xlink:href="#p" />
<use x="351" y="216" xlink:href="#p" />
<use x="351" y="225" xlink:href="#p" />
<use x="351" y="234" xlink:href="#p" />
<use x="351" y="252" xlink:href="#p" />
<use x="351" y="261" xlink:href="#p" />
<use x="351" y="270" xlink:href="#p" />
<use x="351" y="288" xlink:href="#p" />
<use x="351" y="315" xlink:href="#p" />
<use x="351" y="360" xlink:href="#p" />
<use x="351" y="369" xlink:href="#p" />
<use x="351" y="387" xlink:href="#p" />
<use x="351" y="405" xlink:href="#p" />
<use x="351" y="423" xlink:href="#p" />
<use x="351" y="432" xlink:href="#p" />
<use x="351" y="441" xlink:href="#p" />
<use x="351" y="459" xlink:href="#p" />
<use x="351" y="468" xlink:href="#p" />
<use x="360" y="54" xlink:href="#p" />
<use x="360" y="63" xlink:href="#p" />
<use x="360" y="72" xlink:href="#p" />
<use x="360" y="90" xlink:href="#p" />
<use x="360" y="99" xlink:href="#p" />
<use x="360" y="117" xlink:href="#p" />
<use x="360" y="126" xlink:href="#p" />
<use x="360" y="135" xlink:href="#p" />
<use x="360" y="144" xlink:href="#p" />
<use x="360" y="153" xlink:href="#p" />
<use x="360" y="162" xlink:href="#p" />
<use x="360" y="189" xlink:href="#p" />
<use x="360" y="207" xlink:href="#p" />
<use x="360" y="225" xlink:href="#p" />
<use x="360" y="234" xlink:href="#p" />
<use x="360" y="243" xlink:href="#p" />
<use x="360" y="252" xlink:href="#p" />
<use x="360" y="297" xlink:href="#p" />
<use x="360" y="306" xlink:href="#p" />
<use x="360" y="315" xlink:href="#p" />
<use x="360" y="333" xlink:href="#p" />
<use x="360" y="351" xlink:href="#p" />
<use x="360" y="360" xlink:href="#p" />
<use x="360" y="378" xlink:href="#p" />
<use x="360" y="423" xlink:href="#p" />
<use x="360" y="441" xlink:href="#p" />
<use x="360" y="459" xlink:href="#p" />
<use x="360" y="468" xlink:href="#p" />
<use x="369" y="45" xlink:href="#p" />
<use x="369" y="54" xlink:href="#p" />
<use x="369" y="63" xlink:href="#p" />
<use x="369" y="72" xlink:href="#p" />
<use x="369" y="108" xlink:href="#p" />
<use x="369" y="117" xlink:href="#p" />
<use x="369" y="153" xlink:href="#p" />
<use x="369" y="162" xlink:href="#p" />
<use x="369" y="171" xlink:href="#p" />
<use x="369" y="207" xlink:href="#p" />
<use x="369" y="216" xlink:href="#p" />
<use x="369" y="225" xlink:href="#p" />
<use x="369" y="243" xlink:href="#p" />
<use x="369" y="252" xlink:href="#p" />
<use x="369" y="261" xlink:href="#p" />
<use x="369" y="270" xlink:href="#p" />
<use x="369" y="279" xlink:href="#p" />
<use x="369" y="288" xlink:href="#p" />
<use x="369" y="306" xlink:href="#p" />
<use x="369" y="333" xlink:href="#p" />
<use x="369" y="351" xlink:href="#p" />
<use x="369" y="369" xlink:href="#p" />
<use x="369" y="432" xlink:href="#p" />
<use x="369" y="441" xlink:href="#p" />
<use x="369" y="459" xlink:href="#p" />
<use x="369" y="468" xlink:href="#p" />
<use x="378" y="45" xlink:href="#p" />
<use x="378" y="81" xlink:href="#p" />
<use x="378" y="90" xlink:href="#p" />
<use x="378" y="135" xlink:href="#p" />
<use x="378" y="144" xlink:href="#p" />
<use x="378" y="153" xlink:href="#p" />
<use x="378" y="171" xlink:href="#p" />
<use x="378" y="207" xlink:href="#p" />
<use x="378" y="243" xlink:href="#p" />
<use x="378" y="261" xlink:href="#p" />
<use x="378" y="270" xlink:href="#p" />
<use x="378" y="288" xlink:href="#p" />
<use x="378" y="306" xlink:href="#p" />
<use x="378" y="324" xlink:href="#p" />
<use x="378" y="351" xlink:href="#p" />
<use x="378" y="369" xlink:href="#p" />
<use x="378" y="378" xlink:href="#p" />
<use x="378" y="414" xlink:href="#p" />
<use x="378" y="459" xlink:href="#p" />
<use x="387" y="45" xlink:href="#p" />
<use x="387" y="54" xlink:href="#p" />
<use x="387" y="63" xlink:href="#p" />
<use x="387" y="126" xlink:href="#p" />
<use x="387" y="135" xlink:href="#p" />
<use x="387" y="144" xlink:href="#p" />
<use x="387" y="153" xlink:href="#p" />
<use x="387" y="162" xlink:href="#p" />
<use x="387" y="189" xlink:href="#p" />
<use x="387" y="198" xlink:href="#p" />
<use x="387" y="234" xlink:href="#p" />
<use x="387" y="243" xlink:href="#p" />
<use x="387" y="315" xlink:href="#p" />
<use x="387" y="333" xlink:href="#p" />
<use x="387" y="342" xlink:href="#p" />
<use x="387" y="351" xlink:href="#p" />
<use x="387" y="360" xlink:href="#p" />
<use x="387" y="405" xlink:href="#p" />
<use x="387" y="423" xlink:href="#p" />
<use x="387" y="432" xlink:href="#p" />
<use x="387" y="441" xlink:href="#p" />
<use x="387" y="450" xlink:href="#p" />
<use x="396" y="36" xlink:href="#p" />
<use x="396" y="45" xlink:href="#p" />
<use x="396" y="54" xlink:href="#p" />
<use x="396" y="90" xlink:href="#p" />
<use x="396" y="99" xlink:href="#p" />
<use x="396" y="126" xlink:href="#p" />
<use x="396" y="144" xlink:href="#p" />
<use x="396" y="180" xlink:href="#p" />
<use x="396" y="189" xlink:href="#p" />
<use x="396" y="207" xlink:href="#p" />
<use x="396" y="234" xlink:href="#p" />
<use x="396" y="243" xlink:href="#p" />
<use x="396" y="252" xlink:href="#p" />
<use x="396" y="261" xlink:href="#p" />
<use x="396" y="270" xlink:href="#p" />
<use x="396" y="279" xlink:href="#p" />
<use x="396" y="288" xlink:href="#p" />
<use x="396" y="297" xlink:href="#p" />
<use x="396" y="315" xlink:href="#p" />
<use x="396" y="342" xlink:href="#p" />
<use x="396" y="360" xlink:href="#p" />
<use x="396" y="369" xlink:href="#p" />
<use x="396" y="378" xlink:href="#p" />
<use x="396" y="387" xlink:href="#p" />
<use x="396" y="396" xlink:href="#p" />
<use x="396" y="405" xlink:href="#p" />
<use x="396" y="414" xlink:href="#p" />
<use x="396" y="423" xlink:href="#p" />
<use x="396" y="432" xlink:href="#p" />
<use x="396" y="441" xlink:href="#p" />
<use x="396" y="459" xlink:href="#p" />
<use x="405" y="117" xlink:href="#p" />
<use x="405" y="126" xlink:href="#p" />
<use x="405" y="153" xlink:href="#p" />
<use x="405" y="171" xlink:href="#p" />
<use x="405" y="180" xlink:href="#p" />
<use x="405" y="216" xlink:href="#p" />
<use x="405" y="225" xlink:href="#p" />
<use x="405" y="234" xlink:href="#p" />
<use x="405" y="270" xlink:href="#p" />
<use x="405" y="279" xlink:href="#p" />
<use x="405" y="288" xlink:href="#p" />
<use x="405" y="297" xlink:href="#p" />
<use x="405" y="306" xlink:href="#p" />
<use x="405" y="324" xlink:href="#p" />
<use x="405" y="333" xlink:href="#p" />
<use x="405" y="342" xlink:href="#p" />
<use x="405" y="360" xlink:href="#p" />
<use x="405" y="378" xlink:href="#p" />
<use x="405" y="396" xlink:href="#p" />
<use x="405" y="432" xlink:href="#p" />
<use x="405" y="459" xlink:href="#p" />
<use x="414" y="36" xlink:href="#p" />
<use x="414" y="45" xlink:href="#p" />
<use x="414" y="54" xlink:href="#p" />
<use x="414" y="63" xlink:href="#p" />
<use x="414" y="72" xlink:href="#p" />
<use x="414" y="81" xlink:href="#p" />
<use x="414" y="90" xlink:href="#p" />
<use x="414" y="108" xlink:href="#p" />
<use x="414" y="117" xlink:href="#p" />
<use x="414" y="126" xlink:href="#p" />
<use x="414" y="135" xlink:href="#p" />
<use x="414" y="162" xlink:href="#p" />
<use x="414" y="180" xlink:href="#p" />
<use x="414" y="225" xlink:href="#p" />
<use x="414" y="234" xlink:href="#p" />
<use x="414" y="252" xlink:href="#p" />
<use x="414" y="270" xlink:href="#p" />
<use x="414" y="297" xlink:href="#p" />
<use x="414" y="306" xlink:href="#p" />
<use x="414" y="315" xlink:href="#p" />
<use x="414" y="324" xlink:href="#p" />
<use x="414" y="351" xlink:href="#p" />
<use x="414" y="387" xlink:href="#p" />
<use x="414" y="396" xlink:href="#p" />
<use x="414" y="414" xlink:href="#p" />
<use x="414" y="432" xlink:href="#p" />
<use x="414" y="441" xlink:href="#p" />
<use x="414" y="450" xlink:href="#p" />
<use x="423" y="36" xlink:href="#p" />
<use x="423" y="90" xlink:href="#p" />
<use x="423" y="117" xlink:href="#p" />
<use x="423" y="126" xlink:href="#p" />
<use x="423" y="135" xlink:href="#p" />
<use x="423" y="144" xlink:href="#p" />
<use x="423" y="180" xlink:href="#p" />
<use x="423" y="198" xlink:href="#p" />
<use x="423" y="207" xlink:href="#p" />
<use x="423" y="216" xlink:href="#p" />
<use x="423" y="225" xlink:href="#p" />
<use x="423" y="234" xlink:href="#p" />
<use x="423" y="270" xlink:href="#p" />
<use x="423" y="288" xlink:href="#p" />
<use x="423" y="324" xlink:href="#p" />
<use x="423" y="333" xlink:href="#p" />
<use x="423" y="369" xlink:href="#p" />
<use x="423" y="396" xlink:href="#p" />
<use x="423" y="432" xlink:href="#p" />
<use x="423" y="441" xlink:href="#p" />
<use x="423" y="450" xlink:href="#p" />
<use x="423" y="459" xlink:href="#p" />
<use x="432" y="36" xlink:href="#p" />
<use x="432" y="54" xlink:href="#p" />
<use x="432" y="63" xlink:href="#p" />
<use x="432" y="72" xlink:href="#p" />
<use x="432" y="90" xlink:href="#p" />
<use x="432" y="126" xlink:href="#p" />
<use x="432" y="135" xlink:href="#p" />
<use x="432" y="153" xlink:href="#p" />
<use x="432" y="171" xlink:href="#p" />
<use x="432" y="180" xlink:href="#p" />
<use x="432" y="189" xlink:href="#p" />
<use x="432" y="225" xlink:href="#p" />
<use x="432" y="234" xlink:href="#p" />
<use x="432" y="243" xlink:href="#p" />
<use x="432" y="252" xlink:href="#p" />
<use x="432" y="261" xlink:href="#p" />
<use x="432" y="270" xlink:href="#p" />
<use x="432" y="306" xlink:href="#p" />
<use x="432" y="315" xlink:href="#p" />
<use x="432" y="351" xlink:href="#p" />
<use x="432" y="360" xlink:href="#p" />
<use x="432" y="369" xlink:href="#p" />
<use x="432" y="387" xlink:href="#p" />
<use x="432" y="396" xlink:href="#p" />
<use x="432" y="405" xlink:href="#p" />
<use x="432" y="414" xlink:href="#p" />
<use x="432" y="423" xlink:href="#p" />
<use x="432" y="432" xlink:href="#p" />
<use x="432" y="441" xlink:href="#p" />
<use x="432" y="450" xlink:href="#p" />
<use x="441" y="36" xlink:href="#p" />
<use x="441" y="54" xlink:href="#p" />
<use x="441" y="63" xlink:href="#p" />
<use x="441" y="72" xlink:href="#p" />
<use x="441" y="90" xlink:href="#p" />
<use x="441" y="108" xlink:href="#p" />
<use x="441" y="126" xlink:href="#p" />
<use x="441" y="135" xlink:href="#p" />
<use x="441" y="153" xlink:href="#p" />
<use x="441" y="180" xlink:href="#p" />
<use x="441" y="189" xlink:href="#p" />
<use x="441" y="198" xlink:href="#p" />
<use x="441" y="207" xlink:href="#p" />
<use x="441" y="216" xlink:href="#p" />
<use x="441" y="234" xlink:href="#p" />
<use x="441" y="243" xlink:href="#p" />
<use x="441" y="315" xlink:href="#p" />
<use x="441" y="324" xlink:href="#p" />
<use x="441" y="351" xlink:href="#p" />
<use x="441" y="378" xlink:href="#p" />
<use x="441" y="405" xlink:href="#p" />
<use x="441" y="423" xlink:href="#p" />
<use x="441" y="459" xlink:href="#p" />
<use x="450" y="36" xlink:href="#p" />
<use x="450" y="54" xlink:href="#p" />
<use x="450" y="63" xlink:href="#p" />
<use x="450" y="72" xlink:href="#p" />
<use x="450" y="90" xlink:href="#p" />
<use x="450" y="117" xlink:href="#p" />
<use x="450" y="126" xlink:href="#p" />
<use x="450" y="135" xlink:href="#p" />
<use x="450" y="144" xlink:href="#p" />
<use x="450" y="153" xlink:href="#p" />
<use x="450" y="180" xlink:href="#p" />
<use x="450" y="189" xlink:href="#p" />
<use x="450" y="243" xlink:href="#p" />
<use x="450" y="252" xlink:href="#p" />
<use x="450" y="270" xlink:href="#p" />
<use x="450" y="288" xlink:href="#p" />
<use x="450" y="297" xlink:href="#p" />
<use x="450" y="306" xlink:href="#p" />
<use x="450" y="351" xlink:href="#p" />
<use x="450" y="360" xlink:href="#p" />
<use x="450" y="396" xlink:href="#p" />
<use x="450" y="405" xlink:href="#p" />
<use x="450" y="459" xlink:href="#p" />
<use x="450" y="468" xlink:href="#p" />
<use x="459" y="36" xlink:href="#p" />
<use x="459" y="90" xlink:href="#p" />
<use x="459" y="108" xlink:href="#p" />
<use x="459" y="144" xlink:href="#p" />
<use x="459" y="162" xlink:href="#p" />
<use x="459" y="180" xlink:href="#p" />
<use x="459" y="198" xlink:href="#p" />
<use x="459" y="216" xlink:href="#p" />
<use x="459" y="243" xlink:href="#p" />
<use x="459" y="252" xlink:href="#p" />
<use x="459" y="261" xlink:href="#p" />
<use x="459" y="270" xlink:href="#p" />
<use x="459" y="279" xlink:href="#p" />
<use x="459" y="306" xlink:href="#p" />
<use x="459" y="315" xlink:href="#p" />
<use x="459" y="324" xlink:href="#p" />
<use x="459" y="351" xlink:href="#p" />
<use x="459" y="369" xlink:href="#p" />
<use x="459" y="387" xlink:href="#p" />
<use x="459" y="396" xlink:href="#p" />
<use x="459" y="423" xlink:href="#p" />
<use x="459" y="432" xlink:href="#p" />
<use x="459" y="450" xlink:href="#p" />
<use x="459" y="468" xlink:href="#p" />
<use x="468" y="36" xlink:href="#p" />
<use x="468" y="45" xlink:href="#p" />
<use x="468" y="54" xlink:href="#p" />
<use x="468" y="63" xlink:href="#p" />
<use x="468" y="72" xlink:href="#p" />
<use x="468" y="81" xlink:href="#p" />
<use x="468" y="90" xlink:href="#p" />
<use x="468" y="108" xlink:href="#p" />
<use x="468" y="144" xlink:href="#p" />
<use x="468" y="153" xlink:href="#p" />
<use x="468" y="171" xlink:href="#p" />
<use x="468" y="180" xlink:href="#p" />
<use x="468" y="189" xlink:href="#p" />
<use x="468" y="198" xlink:href="#p" />
<use x="468" y="207" xlink:href="#p" />
<use x="468" y="216" xlink:href="#p" />
<use x="468" y="225" xlink:href="#p" />
<use x="468" y="243" xlink:href="#p" />
<use x="468" y="279" xlink:href="#p" />
<use x="468" y="288" xlink:href="#p" />
<use x="468" y="297" xlink:href="#p" />
<use x="468" y="306" xlink:href="#p" />
<use x="468" y="351" xlink:href="#p" />
<use x="468" y="360" xlink:href="#p" />
<use x="468" y="369" xlink:href="#p" />
<use x="468" y="405" xlink:href="#p" />
<use x="468" y="414" xlink:href="#p" />
<use x="468" y="423" xlink:href="#p" />
<use x="468" y="432" xlink:href="#p" />
<use x="468" y="441" xlink:href="#p" />
<use x="468" y="450" xlink:href="#p" />
<use x="468" y="468" xlink:href="#p" />
</g>
</svg>